<svg width="1920" height="1987" viewBox="0 0 1920 1987" fill="none" xmlns="http://www.w3.org/2000/svg">
<path opacity="0.3" d="M335.445 663.705C343.784 663.705 350.544 656.945 350.544 648.605C350.544 640.266 343.784 633.506 335.445 633.506H333.141H284.641H257.253C244.963 633.506 235 623.543 235 611.253C235 598.963 244.963 589 257.253 589H261.818H309.176H359.959H398.759H417.588C429.878 589 439.841 598.963 439.841 611.253C439.841 623.543 429.878 633.506 417.588 633.506H410.15C401.81 633.506 395.05 640.266 395.05 648.605C395.05 656.945 401.81 663.705 410.15 663.705H509.981C539.627 663.705 563.659 687.737 563.659 717.382C563.659 745.917 540.846 769.217 512.317 769.818L428.429 771.588H347.691H320.324C290.533 771.588 266.382 747.438 266.382 717.647V705.786C266.382 682.545 285.223 663.705 308.463 663.705H335.445Z" fill="#D7C4FF"/>
<path d="M2069.96 939.562C2080.71 964.426 2062.48 992.172 2035.39 992.172L1096.47 992.172C1075.67 992.172 1058.81 975.311 1058.81 954.513V403.864C1058.81 390.906 1065.47 378.858 1076.44 371.968L1466.98 126.818C1481.61 117.63 1500.63 119.584 1513.09 131.558L1862.44 467.197C1866.04 470.662 1868.92 474.811 1870.91 479.402L2069.96 939.562Z" fill="url(#paint0_linear_979_1745)"/>
<path d="M1452.7 118.992C1475.07 107.095 1502.81 114.179 1516.74 135.34L1654.91 345.313C1666.35 362.694 1665.58 385.398 1653 401.967L1568.25 513.552L1164.48 1066.86C1155.24 1079.51 1140.51 1087 1124.84 1087H712.492C694.316 1087 677.629 1076.95 669.124 1060.89L551.678 839.05C541.258 819.368 545.398 795.138 561.762 780.032L1035.51 342.725C1038.6 339.875 1042.04 337.433 1045.75 335.459L1452.7 118.992Z" fill="url(#paint1_linear_979_1745)"/>
<path d="M1446.7 118.992C1469.07 107.095 1496.81 114.179 1510.74 135.34L1648.91 345.313C1660.35 362.694 1659.58 385.398 1647 401.967L1562.25 513.552L1158.48 1066.86C1149.24 1079.51 1134.51 1087 1118.84 1087H706.492C688.316 1087 671.629 1076.95 663.124 1060.89L545.678 839.05C535.258 819.368 539.398 795.138 555.762 780.032L1029.51 342.725C1032.6 339.875 1036.04 337.433 1039.75 335.459L1446.7 118.992Z" fill="url(#paint2_linear_979_1745)"/>
<path fill-rule="evenodd" clip-rule="evenodd" d="M-5.34058e-05 1018.52C-5.34058e-05 998.349 -16.3496 982 -36.5177 982H-59.4823C-79.6505 982 -96 965.65 -96 945.482V497.141C-96 493.705 -95.5148 490.285 -94.5588 486.984L3.97151 146.742C12.765 116.376 53.3675 110.771 70.0599 137.617L433.03 721.391C436.518 727 441.462 731.559 447.336 734.581L817.868 925.216C822.442 927.569 827.462 928.929 832.599 929.208L1770.09 980H1887.48C1907.65 980 1924 996.349 1924 1016.52V1950.48C1924 1970.65 1907.65 1987 1887.48 1987H36.5176C16.3495 1987 -5.34058e-05 1970.65 -5.34058e-05 1950.48V1018.52Z" fill="url(#paint3_radial_979_1745)"/>
<defs>
<linearGradient id="paint0_linear_979_1745" x1="1575.76" y1="111.184" x2="1731" y2="1055.5" gradientUnits="userSpaceOnUse">
<stop stop-color="#7F86D1"/>
<stop offset="1" stop-color="#433161"/>
</linearGradient>
<linearGradient id="paint1_linear_979_1745" x1="1504" y1="82.5" x2="1179" y2="1087" gradientUnits="userSpaceOnUse">
<stop stop-color="#AF77DF"/>
<stop offset="0.949611" stop-color="#452C5A"/>
</linearGradient>
<linearGradient id="paint2_linear_979_1745" x1="1436.5" y1="193" x2="847" y2="1017" gradientUnits="userSpaceOnUse">
<stop stop-color="#B194F2"/>
<stop offset="0.345745" stop-color="#9073CB"/>
<stop offset="1" stop-color="#564986"/>
</linearGradient>
<radialGradient id="paint3_radial_979_1745" cx="0" cy="0" r="1" gradientUnits="userSpaceOnUse" gradientTransform="translate(45.9999 201.5) rotate(22.6262) scale(2096.35 2303.72)">
<stop stop-color="#6272C0"/>
<stop offset="0.0833333" stop-color="#5161AF"/>
<stop offset="0.166667" stop-color="#494490"/>
<stop offset="0.25" stop-color="#464189"/>
<stop offset="0.333333" stop-color="#3E397A"/>
<stop offset="0.416667" stop-color="#3E397A"/>
<stop offset="0.5" stop-color="#393570"/>
<stop offset="0.583333" stop-color="#322E6A"/>
<stop offset="0.666667" stop-color="#302C67"/>
<stop offset="0.771567" stop-color="#282559"/>
<stop offset="0.886243" stop-color="#1E1B47"/>
<stop offset="1" stop-color="#141236"/>
</radialGradient>
</defs>
</svg>
