<svg width="1920" height="1207" viewBox="0 0 1920 1207" fill="none" xmlns="http://www.w3.org/2000/svg">
<g clip-path="url(#clip0_1059_113)">
<rect y="-1" width="1924" height="1065" fill="#272359"/>
<g opacity="0.2">
<g filter="url(#filter0_i_1059_113)">
<path d="M1920 826L1889 826L1889 -2.71011e-06L1920 0L1920 826Z" fill="#5B56A7"/>
</g>
<g filter="url(#filter1_i_1059_113)">
<path d="M1731.1 826L1700.1 826L1700.1 -2.71011e-06L1731.1 0L1731.1 826Z" fill="#5B56A7"/>
</g>
<g filter="url(#filter2_i_1059_113)">
<path d="M1542.2 826L1511.2 826L1511.2 -2.71011e-06L1542.2 0L1542.2 826Z" fill="#5B56A7"/>
</g>
<g filter="url(#filter3_i_1059_113)">
<path d="M1353.3 826L1322.3 826L1322.3 -2.71011e-06L1353.3 0L1353.3 826Z" fill="#5B56A7"/>
</g>
<g filter="url(#filter4_i_1059_113)">
<path d="M1164.4 826L1133.4 826L1133.4 -2.71011e-06L1164.4 0L1164.4 826Z" fill="#5B56A7"/>
</g>
<g filter="url(#filter5_i_1059_113)">
<path d="M975.5 826L944.5 826L944.5 -2.71011e-06L975.5 0L975.5 826Z" fill="#5B56A7"/>
</g>
<g filter="url(#filter6_i_1059_113)">
<path d="M786.6 826L755.6 826L755.6 -2.71011e-06L786.6 0L786.6 826Z" fill="#5B56A7"/>
</g>
<g filter="url(#filter7_i_1059_113)">
<path d="M597.699 826L566.699 826L566.699 -2.71011e-06L597.699 0L597.699 826Z" fill="#5B56A7"/>
</g>
<g filter="url(#filter8_i_1059_113)">
<path d="M408.801 826L377.801 826L377.801 -2.71011e-06L408.801 0L408.801 826Z" fill="#5B56A7"/>
</g>
<g filter="url(#filter9_i_1059_113)">
<path d="M219.9 826L188.9 826L188.9 -2.71011e-06L219.9 0L219.9 826Z" fill="#5B56A7"/>
</g>
<g filter="url(#filter10_i_1059_113)">
<path d="M31 826L0 826L7.22112e-05 -2.71011e-06L31.0001 0L31 826Z" fill="#5B56A7"/>
</g>
</g>
<mask id="path-13-inside-1_1059_113" fill="white">
<path d="M0 826H1920V937H0V826Z"/>
</mask>
<path d="M0 826H1920V937H0V826Z" fill="#45378A"/>
<path d="M0 833H1920V819H0V833ZM1920 932H0V942H1920V932Z" fill="#393473" mask="url(#path-13-inside-1_1059_113)"/>
<rect x="1" y="895" width="1918" height="13" fill="#D3E7FF" stroke="#B094F2" stroke-width="2"/>
<rect y="937" width="1920" height="270" fill="#231C45"/>
<g filter="url(#filter11_i_1059_113)">
<path d="M138.994 750.347C140.928 750.347 142.883 750.368 144.878 750.368C146.935 750.368 148.971 750.368 151.089 750.368C157.991 750.347 164.914 750.368 171.837 750.388C176.765 750.388 181.713 750.388 186.64 750.388C197.29 750.368 207.939 750.388 218.608 750.388C234.002 750.409 249.416 750.409 264.809 750.429C289.793 750.429 314.797 750.429 339.781 750.449C364.073 750.47 388.344 750.49 412.615 750.49C414.876 750.49 414.875 750.49 417.156 750.49C424.67 750.51 432.163 750.51 439.676 750.51C501.942 750.531 564.229 750.572 626.516 750.612C629.672 756.929 629.142 761.982 628.552 768.95C624.907 774.553 622.342 778.18 616.335 781.175C608.944 781.175 601.552 781.175 593.937 781.175C593.937 795.967 593.937 810.759 593.937 826C591.249 826 588.561 826 585.792 826C585.792 811.208 585.792 796.415 585.792 781.175C447.373 781.175 308.954 781.175 166.34 781.175C166.34 795.967 166.34 810.759 166.34 826C162.98 826 159.62 826 156.159 826C156.159 811.208 156.159 796.415 156.159 781.175C150.376 781.48 150.376 781.48 144.451 781.806C132.559 781.745 132.559 781.745 126.125 777.222C122.745 768.95 122.48 761.493 123.58 752.65C127.571 748.656 133.679 750.368 138.994 750.347Z" fill="#A48AD1"/>
</g>
<mask id="path-18-inside-2_1059_113" fill="white">
<path d="M748 -1H851V826H748V-1Z"/>
</mask>
<path d="M748 -1H851V826H748V-1Z" fill="#45378A"/>
<path d="M846 -1V826H856V-1H846ZM753 826V-1H743V826H753Z" fill="#231C45" mask="url(#path-18-inside-2_1059_113)"/>
<rect x="768.264" y="384.264" width="63.1944" height="88.4722" rx="2.94907" fill="#AEAAEB" stroke="#A48AD1" stroke-width="2.52778" stroke-dasharray="5.06 5.06"/>
<circle cx="799.862" cy="391.426" r="2.10648" fill="#45378A" stroke="#A48AD1" stroke-width="0.842593"/>
<path d="M783.765 404.494C783.776 404.46 783.782 404.432 783.782 404.409C783.793 404.376 783.804 404.348 783.816 404.325H781.962C781.984 404.291 782.007 404.263 782.029 404.241C782.052 404.207 782.074 404.179 782.097 404.157H784.052C784.142 404.089 784.237 404.056 784.338 404.056H787.708C787.832 404.056 787.928 404.089 787.995 404.157H786.04C786.063 404.179 786.085 404.207 786.108 404.241C786.141 404.263 786.164 404.291 786.175 404.325H788.012C788.034 404.393 788.046 404.449 788.046 404.494H788.989C789 404.494 789.006 404.499 789.006 404.511V404.662H786.731V404.999H787.675V405.252H787.574V405.589H786.967V405.926H788.332V406.01H788.433V406.347H788.501V406.684H788.383V407.021H788.298V407.443H788.585V407.78H788.265V408.117H788.332V408.201H789.528V408.538H790.152V408.707H787.557V408.875H788.416V409.212H787.708V409.549H788.315V409.718H788.433V409.971H790.691V410.139H792.258V410.476H787.978V410.139H786.411V409.971H784.153V409.718H784.035V409.549H783.428V409.212H784.136V408.875H783.276V408.707H785.872V408.538H785.248V408.201H784.052V408.117H783.984V407.78H784.304V407.443H784.018V407.021H784.102V406.684H784.22V406.347H784.153V406.01H784.052V405.926H782.687V405.589H783.293V405.252H783.394V404.999H782.451V404.662H784.726V404.494H783.765ZM794.972 413.594H790.371V413.678H790.708V413.931H793.101V414.015H792.36V414.352H793.539V414.605H793.708V414.689H793.59V414.773H793.539V415.11H793.573V415.363H793.506V415.447H793.421C793.41 415.47 793.404 415.498 793.404 415.532H793.59C793.556 415.644 793.494 415.728 793.404 415.784H793.219C793.163 415.829 793.084 415.852 792.983 415.852H784.49C784.389 415.852 784.31 415.829 784.254 415.784H784.422C784.321 415.728 784.254 415.644 784.22 415.532H784.035C784.035 415.509 784.029 415.492 784.018 415.481C784.018 415.47 784.018 415.459 784.018 415.447H784.102V415.363H784.17V415.11H784.136V414.773H784.186V414.689H784.304V414.605H784.136V414.352H782.956V414.015H783.698V413.931H781.305V413.678H780.968V413.594H785.568V413.341H783.698V413.088H785.518V413.004H781.541V412.751H782.114V412.667H784.304V412.583H783.529V412.33H784.844V411.993H783.512V411.824H784.608V411.74H784.102V411.487H784.591V411.319H783.967V411.15H785.433V410.897H785.855V410.729H783.546V410.476H787.826V410.729H790.135V410.897H789.714V411.15H788.248V411.319H788.871V411.487H788.383V411.74H788.888V411.824H787.793V411.993H789.124V412.33H787.81V412.397H792.478C792.635 412.397 792.758 412.459 792.848 412.583H793.623L793.674 412.667H791.483L791.517 412.751H790.927C790.938 412.774 790.944 412.807 790.944 412.852V413.004H794.921V413.088H793.101V413.341H794.972V413.594ZM805.301 412.92H806.633V413.172H804.071V413.509H805.723V413.846H804.273V414.183H804.459V414.436H804.341V414.605H803.987V414.773H803.97V414.942H804.324V415.279H804.813V415.397C804.813 415.419 804.807 415.436 804.796 415.447H801.796C801.785 415.47 801.779 415.498 801.779 415.532H802.942C802.908 415.644 802.847 415.728 802.757 415.784H802.437C802.38 415.829 802.302 415.852 802.201 415.852H793.421C793.331 415.852 793.247 415.829 793.168 415.784H793.488C793.41 415.728 793.348 415.644 793.303 415.532H792.123C792.112 415.509 792.106 415.481 792.106 415.447H795.123V415.279H794.634V414.942H794.28V414.773H794.297V414.605H794.651V414.436H794.769V414.183H794.584V413.846H796.033V413.509H794.381V413.172H796.943V412.92H795.612V412.751H795.999V412.583H796.168V412.414H794.297V412.246H793.859V411.993H795.426V411.908H794.179V411.74H794.55V411.571H794.82V411.319H794.786V410.982H794.617V410.645H794.365V410.476H794.567V410.139H794.381V409.971H794.651V409.718H794.718V409.465H795.022V409.381H794.735V409.044H794.483V408.791H794.55V408.538H794.584V408.201H794.836V407.864H794.466V407.527H794.516V407.19H794.988V406.937H794.735V406.684H794.6V406.6H795.308V406.347H796.555V406.179H796.05V406.01H794.415V405.926H794.6V405.673H794.617V405.421H794.668V405.083H794.651V404.662H794.617V404.511C794.617 404.466 794.623 404.432 794.634 404.409H794.466C794.511 404.173 794.657 404.056 794.904 404.056H803.549C803.807 404.056 803.953 404.173 803.987 404.409H804.155C804.167 404.432 804.172 404.466 804.172 404.511V404.662H804.206V405.083H804.223V405.421H804.172V405.673H804.155V405.926H803.97V406.01H805.605V406.179H806.11V406.347H804.863V406.6H804.155V406.684H804.29V406.937H804.543C804.521 407.05 804.481 407.134 804.425 407.19H803.953C803.875 407.291 803.762 407.342 803.616 407.342H798.561V407.527H798.51V407.864H798.881V408.201H798.628V408.403H803.313C803.436 408.403 803.543 408.448 803.633 408.538H803.599C803.656 408.594 803.695 408.679 803.717 408.791H803.667V409.044H803.92V409.381H804.206V409.465H803.903V409.718H803.835V409.971H803.566V410.139H803.751V410.476H803.549V410.645H803.802V410.982H803.97V411.049C803.97 411.173 803.942 411.262 803.886 411.319H803.92C803.83 411.442 803.706 411.504 803.549 411.504H798.864V411.571H798.594V411.74H798.224V411.908H799.471V411.993H797.903V412.246H798.342V412.414H800.212V412.566H805.403C805.459 412.566 805.504 412.571 805.537 412.583H805.352C805.464 412.616 805.549 412.672 805.605 412.751H805.217C805.262 412.818 805.29 412.875 805.301 412.92ZM816.543 409.381H817.386V409.718H817.234V410.055H817.083V410.308H816.729V410.392H816.864V410.476H816.392V410.645H817.201V410.897H816.712V410.982H816.729C816.729 411.038 816.723 411.094 816.712 411.15C816.712 411.206 816.712 411.262 816.712 411.319H816.695C816.684 411.352 816.678 411.403 816.678 411.47V411.656H816.594C816.583 411.678 816.577 411.706 816.577 411.74C816.577 411.774 816.577 411.802 816.577 411.824H816.746L816.695 412.161H816.543C816.532 412.217 816.521 412.274 816.51 412.33C816.51 412.386 816.499 412.442 816.476 412.498H816.661C816.661 412.51 816.656 412.521 816.645 412.532C816.645 412.543 816.645 412.56 816.645 412.583H816.897C816.897 412.594 816.892 412.605 816.88 412.616C816.88 412.627 816.88 412.644 816.88 412.667H816.577C816.566 412.712 816.555 412.757 816.543 412.802C816.532 412.835 816.521 412.875 816.51 412.92H816.459L816.358 413.172H816.173C816.161 413.217 816.145 413.262 816.122 413.307C816.1 413.341 816.077 413.38 816.055 413.425H816.206C816.184 413.481 816.156 413.537 816.122 413.594H816.021C816.01 413.639 815.987 413.684 815.954 413.728C815.931 413.762 815.909 413.801 815.886 413.846H816.409L816.291 414.015H815.667L815.482 414.268H815.667L815.431 414.521H815.617C815.605 414.532 815.589 414.543 815.566 414.554C815.555 414.565 815.544 414.582 815.532 414.605H815.735C815.701 414.627 815.667 414.655 815.633 414.689C815.611 414.723 815.583 414.751 815.549 414.773H815.229C815.195 414.796 815.162 414.824 815.128 414.858C815.094 414.891 815.055 414.919 815.01 414.942H815.128C815.094 414.964 815.055 414.992 815.01 415.026C814.976 415.06 814.937 415.088 814.892 415.11H814.858C814.757 415.166 814.656 415.223 814.555 415.279C814.454 415.335 814.347 415.391 814.235 415.447H814.184C814.15 415.459 814.117 415.47 814.083 415.481C814.049 415.492 814.016 415.509 813.982 415.532C813.903 415.565 813.825 415.599 813.746 415.633C813.679 415.655 813.6 415.678 813.51 415.7H813.493C813.123 415.812 812.718 415.897 812.28 415.953H812.297C812.117 415.975 811.926 415.992 811.724 416.003C811.533 416.015 811.342 416.02 811.151 416.02C810.949 416.02 810.752 416.015 810.561 416.003C810.37 415.992 810.179 415.975 809.988 415.953C809.561 415.908 809.151 415.824 808.758 415.7H808.775C808.696 415.678 808.617 415.655 808.539 415.633C808.46 415.599 808.382 415.565 808.303 415.532H808.286C808.252 415.509 808.219 415.492 808.185 415.481C808.151 415.47 808.118 415.459 808.084 415.447H808.134C808.022 415.391 807.915 415.335 807.814 415.279C807.713 415.223 807.612 415.166 807.511 415.11H807.545L807.292 414.942H807.191C807.146 414.919 807.106 414.891 807.073 414.858C807.039 414.824 807.005 414.796 806.972 414.773H807.292L807.09 414.605H806.887C806.876 414.582 806.865 414.565 806.854 414.554C806.842 414.543 806.826 414.532 806.803 414.521H806.635C806.59 414.476 806.545 414.436 806.5 414.403C806.466 414.358 806.432 414.313 806.399 414.268H806.213L806.011 414.015H806.635L806.533 413.846H805.994C805.972 413.801 805.949 413.762 805.927 413.728C805.904 413.684 805.882 413.639 805.859 413.594H805.96C805.927 413.537 805.899 413.481 805.876 413.425H805.725C805.702 413.38 805.68 413.341 805.657 413.307C805.646 413.262 805.629 413.217 805.607 413.172H805.809L805.708 412.92H805.758C805.747 412.875 805.736 412.835 805.725 412.802C805.713 412.757 805.702 412.712 805.691 412.667H805.876C805.865 412.644 805.859 412.616 805.859 412.583H805.691C805.691 412.56 805.685 412.543 805.674 412.532C805.674 412.521 805.674 412.51 805.674 412.498H805.64C805.629 412.442 805.618 412.386 805.607 412.33C805.595 412.274 805.584 412.217 805.573 412.161H805.657C805.646 412.105 805.635 412.049 805.623 411.993C805.623 411.937 805.623 411.88 805.623 411.824H805.522L805.505 411.656H805.623V411.47C805.623 411.448 805.618 411.425 805.607 411.403C805.607 411.369 805.607 411.341 805.607 411.319H805.388C805.376 411.262 805.371 411.206 805.371 411.15C805.371 411.094 805.371 411.038 805.371 410.982H805.489V410.897H805.438V410.645H805.775V410.476H805.185V410.392H805.505V410.308H805.489V410.055H805.404V409.718H805.505V409.381H805.388V409.128H804.764V408.791H805.489C805.5 408.768 805.505 408.74 805.505 408.707H805.775V408.622H805.573V408.454H805.59L805.623 408.117H805.59C805.59 408.072 805.59 408.033 805.59 407.999C805.601 407.954 805.612 407.909 805.623 407.864H805.573C805.573 407.819 805.573 407.78 805.573 407.746C805.584 407.701 805.595 407.656 805.607 407.611H805.573C805.584 407.566 805.595 407.527 805.607 407.493C805.618 407.448 805.629 407.403 805.64 407.358H805.168C805.168 407.336 805.168 407.319 805.168 407.308C805.18 407.297 805.185 407.285 805.185 407.274H805.691L805.741 407.106H805.708L805.741 407.021H805.994C806.005 406.999 806.017 406.971 806.028 406.937C806.039 406.903 806.05 406.875 806.062 406.853H805.893C805.927 406.752 805.972 406.639 806.028 406.516H805.977C806.011 406.46 806.039 406.404 806.062 406.347C806.095 406.28 806.129 406.224 806.163 406.179H806.213L806.264 406.095H805.994L806.045 406.01H806.314L806.365 405.926H806.331L806.533 405.673H806.415L806.635 405.421C806.691 405.364 806.747 405.308 806.803 405.252C806.87 405.185 806.938 405.128 807.005 405.083H806.837L806.938 404.999H806.753C806.775 404.977 806.792 404.96 806.803 404.949C806.826 404.937 806.848 404.926 806.87 404.915H807.292C807.337 404.892 807.382 404.864 807.427 404.831C807.472 404.797 807.516 404.769 807.561 404.746H807.612C807.724 404.69 807.837 404.634 807.949 404.578C808.061 404.511 808.174 404.454 808.286 404.409H808.337C808.561 404.308 808.808 404.224 809.078 404.157H809.162C809.488 404.067 809.831 403.999 810.19 403.954C810.55 403.909 810.921 403.887 811.303 403.887C812.1 403.887 812.808 403.977 813.426 404.157H813.325C813.448 404.19 813.572 404.23 813.695 404.275C813.819 404.308 813.937 404.353 814.049 404.409H813.982C814.106 404.454 814.218 404.511 814.319 404.578C814.431 404.634 814.544 404.69 814.656 404.746H814.589L814.841 404.915H814.42C814.443 404.926 814.459 404.937 814.471 404.949C814.493 404.96 814.516 404.977 814.538 404.999H814.723C814.746 405.01 814.768 405.022 814.791 405.033C814.813 405.044 814.83 405.061 814.841 405.083H815.01C815.077 405.128 815.139 405.185 815.195 405.252C815.263 405.308 815.324 405.364 815.381 405.421H815.398C815.442 405.465 815.482 405.51 815.515 405.555C815.549 405.589 815.583 405.628 815.617 405.673H815.735L815.937 405.926H815.97C816.004 405.96 816.027 405.988 816.038 406.01H815.768L815.819 406.095H816.105L816.156 406.179H816.105C816.139 406.224 816.167 406.28 816.19 406.347C816.223 406.404 816.257 406.46 816.291 406.516H816.341L816.493 406.853H816.661L816.712 407.021H816.459L816.493 407.106H816.527L816.577 407.274H816.527C816.527 407.285 816.527 407.297 816.527 407.308C816.538 407.319 816.543 407.336 816.543 407.358H815.836C815.858 407.403 815.869 407.448 815.869 407.493C815.881 407.527 815.892 407.566 815.903 407.611H816.779C816.791 407.656 816.796 407.701 816.796 407.746C816.807 407.78 816.813 407.819 816.813 407.864H816.577C816.588 407.909 816.594 407.954 816.594 407.999C816.605 408.033 816.611 408.072 816.611 408.117H816.83L816.864 408.454H816.645V408.504C816.645 408.516 816.645 408.532 816.645 408.555C816.656 408.577 816.661 408.6 816.661 408.622H817.116V408.707H816.712C816.723 408.729 816.729 408.757 816.729 408.791H817.032C817.043 408.847 817.049 408.903 817.049 408.959C817.049 409.016 817.049 409.072 817.049 409.128H816.543V409.381ZM812.853 409.718H813.005V409.381H812.162V409.128H812.668C812.668 409.072 812.668 409.016 812.668 408.959C812.668 408.903 812.662 408.847 812.651 408.791H812.347C812.347 408.768 812.342 408.752 812.33 408.74C812.33 408.729 812.33 408.718 812.33 408.707H812.735V408.622H812.28C812.28 408.6 812.274 408.583 812.263 408.572C812.263 408.561 812.263 408.549 812.263 408.538V408.454H812.465C812.465 408.398 812.46 408.341 812.448 408.285C812.448 408.218 812.443 408.162 812.432 408.117H812.213C812.201 408.072 812.19 408.033 812.179 407.999C812.168 407.954 812.151 407.909 812.128 407.864H812.364C812.33 407.774 812.286 407.69 812.229 407.611H811.353C811.297 407.521 811.207 407.437 811.083 407.358H811.791C811.724 407.314 811.673 407.285 811.64 407.274H811.69C811.522 407.207 811.336 407.173 811.134 407.173C810.932 407.173 810.746 407.207 810.578 407.274H810.089C810.044 407.285 809.988 407.314 809.921 407.358H810.393C810.303 407.415 810.213 407.499 810.123 407.611H810.157C810.1 407.69 810.055 407.774 810.022 407.864H810.072C810.061 407.909 810.05 407.954 810.039 407.999C810.027 408.033 810.011 408.072 809.988 408.117H810.022C810.011 408.162 809.999 408.218 809.988 408.285C809.988 408.341 809.988 408.398 809.988 408.454H809.954V408.622H810.157V408.707H809.887V408.791H809.145V409.128H809.769V409.381H809.887V409.718H809.786V410.055H809.87V410.308H809.887C809.887 410.341 809.893 410.369 809.904 410.392H809.567V410.476H810.157V410.645H809.82V410.897H809.87V410.982H809.752C809.752 411.038 809.752 411.094 809.752 411.15C809.763 411.206 809.769 411.262 809.769 411.319H810.005V411.369C810.005 411.414 810.005 411.465 810.005 411.521C810.005 411.566 810.011 411.611 810.022 411.656H809.904C809.915 411.678 809.921 411.706 809.921 411.74C809.921 411.774 809.926 411.802 809.938 411.824H810.039C810.05 411.88 810.067 411.937 810.089 411.993C810.112 412.049 810.134 412.105 810.157 412.161H810.072C810.14 412.285 810.23 412.397 810.342 412.498H810.376C810.398 412.51 810.421 412.526 810.443 412.549C810.466 412.56 810.488 412.571 810.51 412.583H810.662C810.696 412.594 810.73 412.611 810.763 412.633C810.797 412.644 810.831 412.656 810.864 412.667H810.662C810.797 412.712 810.954 412.734 811.134 412.734C811.314 412.734 811.471 412.712 811.606 412.667H811.892C811.926 412.656 811.96 412.644 811.993 412.633C812.027 412.611 812.061 412.594 812.095 412.583H811.825C811.847 412.571 811.87 412.56 811.892 412.549C811.915 412.526 811.937 412.51 811.96 412.498H811.774C811.875 412.42 811.965 412.307 812.044 412.161H812.196C812.252 412.038 812.297 411.925 812.33 411.824H812.162C812.173 411.802 812.179 411.774 812.179 411.74C812.179 411.706 812.184 411.678 812.196 411.656H812.28C812.291 411.611 812.297 411.566 812.297 411.521C812.297 411.465 812.297 411.414 812.297 411.369V411.319H812.33C812.33 411.262 812.33 411.206 812.33 411.15C812.33 411.094 812.336 411.038 812.347 410.982H812.33V410.897H812.819V410.645H812.01V410.476H812.482V410.392H812.347V410.308H812.701V410.055H812.853V409.718ZM792.753 428.875L792.702 429.128H795.483L795.449 429.296H792.888L792.871 429.381H793.933L793.882 429.718H794.236L794.202 429.971H794.405L794.354 430.223H794.371L794.337 430.476H794.405V430.56H794.371L794.32 430.897H794.27L794.219 431.234L794.185 431.571H794.506L794.489 431.656H794.303V431.74H794.64V431.824H794.101L794.084 431.908H793.899L793.865 432.161H794.421L794.371 432.498H795.011L794.977 432.751H794.472L794.455 432.835H794.202L794.152 433.172H794.287L794.27 433.341H794.421L794.388 433.594H794.135L794.101 433.846H793.545L793.528 434.015H794.101L794.051 434.352H793.68L793.646 434.689H793.983L793.95 434.942H792.652L792.618 435.11H793.107L793.09 435.211V435.279H793.545C793.534 435.301 793.523 435.329 793.511 435.363C793.511 435.397 793.5 435.425 793.478 435.447H793.292C793.236 435.548 793.163 435.633 793.073 435.7H793.225C793.157 435.745 793.107 435.773 793.073 435.784H793.208C793.118 435.829 793.006 435.852 792.871 435.852H790.461C790.394 435.852 790.332 435.846 790.276 435.835C790.231 435.812 790.186 435.796 790.141 435.784H790.006C789.972 435.773 789.944 435.762 789.922 435.751C789.899 435.728 789.877 435.711 789.855 435.7H789.72C789.675 435.655 789.635 435.61 789.602 435.565C789.568 435.52 789.54 435.481 789.517 435.447H789.703C789.692 435.436 789.686 435.419 789.686 435.397L789.635 435.279H789.18L789.113 435.11H788.624L788.557 434.942H789.855L789.753 434.689H789.4L789.265 434.352H789.635L789.501 434.015H788.928L788.86 433.846H789.4L789.298 433.594H789.551L789.45 433.341H789.298L789.231 433.172H789.096L788.961 432.835H789.214L789.18 432.751H789.686L789.585 432.498H788.945L788.81 432.161H788.254L788.169 431.942L788.085 432.161H788.018L787.883 432.498H788.928L788.827 432.751H788.001L787.967 432.835H788.119L787.984 433.172H788.287L788.22 433.341H787.377L787.276 433.594H787.731L787.63 433.846H787.074L787.007 434.015H787.276L787.141 434.352H787.158L787.023 434.689H785.911L785.81 434.942H787.58L787.512 435.11H787.141L787.074 435.279H787.04L786.99 435.397L786.956 435.447H786.434C786.411 435.481 786.383 435.52 786.349 435.565C786.327 435.61 786.288 435.655 786.231 435.7H786.332C786.299 435.734 786.254 435.762 786.198 435.784H786.653C786.608 435.796 786.557 435.812 786.501 435.835C786.445 435.846 786.383 435.852 786.316 435.852H783.906C783.771 435.852 783.659 435.829 783.569 435.784H783.131C783.097 435.773 783.046 435.745 782.979 435.7H782.861C782.76 435.621 782.687 435.537 782.642 435.447H783.181C783.17 435.425 783.159 435.397 783.147 435.363C783.136 435.329 783.125 435.301 783.114 435.279H783.164L783.147 435.211L783.131 435.11H783.501L783.468 434.942H781.715L781.681 434.689H782.777L782.743 434.352H782.726L782.676 434.015H782.406L782.389 433.846H782.928L782.895 433.594H782.457L782.423 433.341H783.265L783.232 433.172H782.928L782.878 432.835H782.726L782.709 432.751H783.535L783.501 432.498H782.457L782.406 432.161H782.473L782.423 431.908H782.608V431.824H783.147L783.131 431.74H782.777L782.76 431.656H782.945V431.571H782.608L782.591 431.403H782.575L782.558 431.234L782.507 430.897H782.558L782.507 430.56H782.541L782.524 430.476H782.457L782.423 430.223H782.406L782.372 429.971H782.17L782.136 429.718H781.782L781.732 429.381H780.67V429.296H783.232L783.215 429.128H782.204L782.17 428.875H781.108L781.092 428.707H782.625L782.575 428.37H782.17V428.285H782.406L782.389 428.201H782.743L782.709 427.948H782.136L782.12 427.864H780.805L780.771 427.527H782.237L782.187 427.19H781.816L781.799 427.021H781.951L781.917 426.769H781.968L781.951 426.684H781.429L781.412 426.516H781.766L781.732 426.263H781.766L781.732 426.01H782.018L781.985 425.842H781.075L781.058 425.673H781.782L781.766 425.505H781.344L781.327 425.336H781.85L781.816 425.083H781.648L781.597 424.746H781.782L781.766 424.662L781.732 424.477V424.409H781.479C781.502 424.173 781.625 424.056 781.85 424.056H784.984C785.333 424.056 785.529 424.173 785.574 424.409H785.827C785.838 424.432 785.844 424.466 785.844 424.511L785.861 424.662L785.877 424.746H785.709L785.743 425.083H785.911L785.945 425.336H785.406L785.439 425.505H785.844L785.861 425.673H785.136L785.153 425.842H786.063L786.097 426.01H785.81L785.827 426.263H785.81L785.827 426.516H785.456L785.49 426.684H785.995L786.012 426.769H785.962L785.995 427.021H785.844L785.861 427.19H786.231L786.282 427.527H784.799L784.833 427.864H786.147L786.164 427.948H786.737L786.771 428.201H786.417V428.285H786.181L786.198 428.37H786.552L786.585 428.285H786.754L786.787 428.201H787.495L787.58 427.948H786.804L786.821 427.864H788.119L788.237 427.527H786.872L786.973 427.19H786.821V427.156L786.872 427.021H787.192C787.214 426.976 787.237 426.932 787.259 426.887C787.293 426.842 787.332 426.802 787.377 426.769H787.276C787.332 426.724 787.394 426.696 787.462 426.684H787.613C787.647 426.673 787.697 426.668 787.765 426.668H789.484C789.551 426.668 789.596 426.673 789.619 426.684H789.467C789.512 426.696 789.546 426.707 789.568 426.718C789.602 426.729 789.63 426.746 789.652 426.769H789.753C789.81 426.802 789.849 426.842 789.871 426.887C789.905 426.932 789.928 426.976 789.939 427.021H789.635C789.669 427.066 789.686 427.111 789.686 427.156L789.703 427.19H789.871L789.972 427.527H790.63L790.68 427.19H790.579L790.596 427.021H791.388L791.405 426.769H790.663L790.68 426.684H790.545L790.579 426.516H790.866L790.899 426.263H790.798L790.832 426.01H791.068L791.085 425.842H790.057L790.074 425.673H790.377L790.394 425.505H790.967L790.984 425.336H790.967L791 425.083L791.034 424.746H790.697L790.714 424.662H791.118L791.152 424.511V424.409H791.472C791.517 424.173 791.714 424.056 792.062 424.056H795.197C795.286 424.056 795.365 424.089 795.432 424.157C795.511 424.224 795.556 424.308 795.567 424.409H795.264V424.477L795.23 424.662H794.809L794.792 424.746H795.146L795.095 425.083L795.062 425.336H795.079L795.045 425.505H794.472L794.455 425.673H794.152L794.118 425.842H795.163L795.146 426.01H794.91L794.876 426.263H794.961L794.927 426.516H794.64L794.607 426.684H794.742L794.725 426.769H795.466L795.432 427.021H794.657L794.624 427.19H794.725L794.674 427.527H794.067L794.017 427.864H794.758L794.742 427.948H793.882L793.848 428.201H794.64V428.285H794.59L794.573 428.37H794.624L794.573 428.707H794.843L794.809 428.875H792.753ZM790.731 427.864H790.158L790.175 427.948H790.714L790.731 427.864ZM790.326 428.201L790.36 428.285H790.192L790.225 428.37L790.343 428.707H788.523L788.574 428.875H790.815L790.832 428.707H790.562L790.613 428.37H790.562L790.579 428.285H790.613L790.63 428.201H790.326ZM787.259 429.128H787.209L787.226 429.263L787.259 429.128ZM791.472 429.246L791.489 429.128H791.422L791.472 429.246ZM808.024 434.942L808.142 435.279H807.855L807.889 435.363C807.889 435.374 807.889 435.391 807.889 435.414C807.9 435.425 807.906 435.436 807.906 435.447H807.805V435.481C807.805 435.616 807.754 435.717 807.653 435.784H807.67C807.614 435.829 807.541 435.852 807.451 435.852H804.333C804.255 435.852 804.187 435.846 804.131 435.835C804.086 435.812 804.035 435.796 803.979 435.784C803.889 435.739 803.822 435.689 803.777 435.633C803.732 435.565 803.698 435.504 803.676 435.447H803.76V435.431L803.726 435.363L803.693 435.279H803.979L803.861 434.942H803.541L803.491 434.773H804.181L804.064 434.436H803.861L803.811 434.318H800.188L800.154 434.436H799.952L799.834 434.773H799.648L799.581 434.942H799.48L799.362 435.279H799.379L799.345 435.363L799.328 435.431L799.311 435.447H799.227C799.205 435.504 799.171 435.565 799.126 435.633C799.081 435.689 799.014 435.739 798.924 435.784H799.429C799.384 435.796 799.334 435.812 799.278 435.835C799.221 435.846 799.154 435.852 799.075 435.852H795.958C795.868 435.852 795.801 435.829 795.756 435.784H795.25C795.138 435.706 795.081 435.605 795.081 435.481V435.447H795.183C795.183 435.414 795.188 435.386 795.199 435.363L795.216 435.279H795.199L795.317 434.942H795.419L795.486 434.773H795.671L795.789 434.436H795.975L796.093 434.099H795.435L795.503 433.931H795.452L795.536 433.678H795.705L795.739 433.594H795.368L795.486 433.257H796.059L796.109 433.088H795.587L795.621 433.004H795.705L795.823 432.667H795.772L795.857 432.414H795.924L796.042 432.077H796.261L796.345 431.824L796.379 431.74H797.222L797.255 431.656H797.205L797.289 431.403H796.345L796.463 431.066H796.767L796.8 430.982H796.615L796.649 430.897H797.188L797.306 430.56H796.649L796.716 430.392H796.969L797.087 430.055H796.935L797.019 429.802H797.205L797.323 429.465H797.272L797.306 429.381H796.918L796.986 429.212H797.356L797.441 428.959H797.272L797.289 428.875H797.592L797.71 428.538H797.34L797.424 428.285H797.239L797.289 428.117H796.126L796.177 427.948H795.958L796.076 427.611H795.857L795.958 427.358H796.615L796.733 427.021H798.418L798.502 426.769H797.694L797.761 426.6H798.384L798.502 426.263H797.946L798.031 426.01H798.384L798.502 425.673H798.452L798.57 425.336H798.098L798.115 425.252H799.733L799.851 424.915H799.8L799.834 424.831H799.244L799.311 424.612L799.362 424.494H799.53L799.631 424.325H799.581C799.637 424.246 799.716 424.185 799.817 424.14C799.918 424.084 800.042 424.056 800.188 424.056H803.844C803.991 424.056 804.114 424.084 804.215 424.14C804.316 424.185 804.395 424.246 804.451 424.325H804.519L804.62 424.494H804.451C804.474 424.539 804.485 424.578 804.485 424.612L804.569 424.831H805.159L805.176 424.915H805.226L805.344 425.252H803.743L803.777 425.336H804.249L804.367 425.673H804.417L804.535 426.01H804.181L804.266 426.263H804.822L804.94 426.6H804.316L804.384 426.769H805.193L805.277 427.021H803.592L803.71 427.358H803.052L803.137 427.611H803.339L803.457 427.948H802.8L802.867 428.117H805.546L805.597 428.285H805.462L805.546 428.538H805.209L805.327 428.875H804.923L804.94 428.959H805.546L805.631 429.212H805.648L805.715 429.381H805.159L805.193 429.465H805.732L805.85 429.802H806.035L806.119 430.055H806.069L806.187 430.392H806.456L806.524 430.56H806.035L806.153 430.897H806.49L806.507 430.982H806.423L806.456 431.066H806.153L806.254 431.403H807.215L807.299 431.656H807.35L807.383 431.74H806.524L806.558 431.824H806.574L806.659 432.077H806.44L806.558 432.414H806.473L806.574 432.667H806.625L806.743 433.004H806.659L806.692 433.088H807.215L807.282 433.257H806.692L806.81 433.594H807.181L807.215 433.678H807.046L807.147 433.931H807.181L807.249 434.099H807.906L808.024 434.436H808.226L808.344 434.773H807.653L807.704 434.942H808.024ZM800.98 428.285H801.182L801.098 428.538H801.789L801.704 428.285H801.839L801.789 428.117H801.03L800.98 428.285ZM801.536 428.875L801.451 428.589L801.367 428.875H801.536ZM800.525 430.897L800.491 430.982H800.676L800.659 431.032H802.564L802.547 430.982H802.631L802.614 430.897H802.277L802.176 430.56H802.665L802.614 430.392H802.328L802.227 430.055H802.277L802.21 429.802H802.024L801.923 429.465H801.384L801.35 429.381H801.906L801.856 429.212H801.839L801.755 428.959H801.216L801.148 429.212H800.777L800.727 429.381H801.098L801.081 429.465H801.131L801.03 429.802H800.845L800.761 430.055H800.912L800.811 430.392H800.558L800.508 430.56H801.165L801.064 430.897H800.525ZM818.963 434.183H818.272L818.12 434.352H820.699C820.687 434.363 820.676 434.374 820.665 434.386C820.654 434.397 820.637 434.414 820.614 434.436H816.637C816.581 434.492 816.519 434.549 816.452 434.605C816.396 434.661 816.334 434.717 816.267 434.773H817.497L817.278 434.942H819.57L819.435 435.026H818.441C818.429 435.037 818.407 435.049 818.373 435.06C818.351 435.071 818.328 435.088 818.306 435.11H817.177L816.705 435.363H817.362C817.216 435.431 817.07 435.492 816.924 435.548C816.778 435.593 816.626 435.644 816.469 435.7H815.862C815.48 435.812 815.065 435.897 814.615 435.953H814.699C814.52 435.975 814.334 435.992 814.143 436.003C813.952 436.015 813.761 436.02 813.57 436.02C813.357 436.02 813.143 436.015 812.93 436.003C812.728 435.992 812.531 435.975 812.34 435.953H812.273C811.79 435.897 811.357 435.812 810.975 435.7H811.582C811.413 435.644 811.256 435.593 811.11 435.548C810.964 435.492 810.818 435.431 810.672 435.363H810.015C809.936 435.318 809.857 435.279 809.779 435.245C809.7 435.2 809.621 435.155 809.543 435.11H810.689L810.554 435.026H811.548C811.537 435.004 811.52 434.987 811.498 434.976C811.475 434.964 811.453 434.953 811.43 434.942H809.138C809.093 434.919 809.054 434.891 809.02 434.858C808.987 434.824 808.953 434.796 808.919 434.773H807.672C807.616 434.717 807.56 434.661 807.504 434.605C807.436 434.549 807.374 434.492 807.318 434.436H811.295C811.284 434.414 811.273 434.397 811.262 434.386C811.25 434.374 811.239 434.363 811.228 434.352H808.65C808.605 434.307 808.56 434.251 808.515 434.183H809.206C809.194 434.161 809.183 434.144 809.172 434.133C809.161 434.122 809.15 434.11 809.138 434.099H811.245L811.093 433.846H810.048L809.998 433.762H807.622C807.61 433.717 807.594 433.678 807.571 433.644C807.549 433.599 807.526 433.554 807.504 433.509H808.633L808.532 433.257H808.127L808.093 433.172H808.279C808.268 433.127 808.256 433.088 808.245 433.054C808.234 433.009 808.223 432.965 808.211 432.92H808.077C808.077 432.875 808.071 432.835 808.06 432.802C808.06 432.757 808.054 432.712 808.043 432.667H807.908C807.908 432.622 807.903 432.583 807.891 432.549C807.891 432.515 807.891 432.476 807.891 432.431V432.414H807.874C807.874 432.392 807.874 432.375 807.874 432.363C807.886 432.352 807.891 432.341 807.891 432.33H808.279C808.335 432.15 808.453 432.06 808.633 432.06H811.835C812.014 432.06 812.149 432.083 812.239 432.128C812.329 432.172 812.43 432.24 812.542 432.33H812.155L812.172 432.347C812.194 432.358 812.211 432.369 812.222 432.38C812.245 432.392 812.262 432.403 812.273 432.414H812.29C812.436 432.526 812.615 432.611 812.829 432.667H812.981C813.127 432.712 813.323 432.734 813.57 432.734C813.716 432.734 813.851 432.729 813.975 432.717C814.098 432.706 814.205 432.689 814.295 432.667H814.244C814.503 432.611 814.666 432.526 814.733 432.414H814.699C814.722 432.369 814.733 432.341 814.733 432.33H814.902L814.918 432.262C814.918 432.161 814.879 432.071 814.801 431.993H814.666C814.565 431.892 814.385 431.807 814.126 431.74H814.076C813.975 431.706 813.857 431.678 813.722 431.656C813.587 431.622 813.43 431.594 813.25 431.571H813.149L812.458 431.47C812.379 431.459 812.301 431.448 812.222 431.437C812.155 431.425 812.082 431.414 812.003 431.403C811.543 431.324 811.099 431.212 810.672 431.066H810.368C810.211 431.01 810.065 430.954 809.93 430.897H809.694C809.638 430.875 809.582 430.852 809.526 430.83C809.47 430.796 809.414 430.763 809.357 430.729H807.891C807.813 430.684 807.74 430.645 807.672 430.611C807.605 430.566 807.537 430.521 807.47 430.476H810.604C810.548 430.431 810.492 430.392 810.436 430.358C810.391 430.313 810.34 430.268 810.284 430.223H806.931C806.897 430.201 806.869 430.173 806.846 430.139C806.813 430.105 806.785 430.077 806.762 430.055H807.638C807.537 429.942 807.442 429.83 807.352 429.718H807.605L807.504 429.549H805.886C805.875 429.527 805.863 429.51 805.852 429.499C805.841 429.487 805.835 429.476 805.835 429.465H809.678C809.655 429.42 809.633 429.381 809.61 429.347C809.588 429.302 809.565 429.257 809.543 429.212H806.594L806.493 428.959H808.869L808.835 428.875H808.127L808.093 428.791H808.431C808.431 428.768 808.425 428.752 808.414 428.74C808.414 428.729 808.414 428.718 808.414 428.707H808.346L808.296 428.538H808.195L808.178 428.37H808.144V428.285H807.605C807.594 428.263 807.588 428.235 807.588 428.201C807.588 428.167 807.588 428.139 807.588 428.117H807.099L807.082 427.948H809.003C808.992 427.926 808.987 427.898 808.987 427.864C808.987 427.83 808.987 427.802 808.987 427.78H809.256V427.763C809.256 427.707 809.256 427.651 809.256 427.594C809.256 427.538 809.262 427.488 809.273 427.443H808.548C808.56 427.398 808.565 427.358 808.565 427.325C808.565 427.28 808.571 427.235 808.582 427.19H809.762C809.762 427.167 809.762 427.151 809.762 427.139C809.773 427.128 809.779 427.117 809.779 427.106H808.582C808.605 427.038 808.616 426.982 808.616 426.937H808.431L808.481 426.769H808.195C808.228 426.645 808.268 426.533 808.313 426.432H808.447L808.515 426.263H808.7L808.852 426.01H808.683C808.717 425.965 808.745 425.926 808.768 425.892C808.801 425.847 808.829 425.802 808.852 425.758H808.717L808.919 425.505H809.273C809.284 425.482 809.296 425.465 809.307 425.454C809.318 425.443 809.329 425.432 809.341 425.421H808.869C808.914 425.376 808.959 425.336 809.003 425.303C809.048 425.258 809.093 425.213 809.138 425.168H809.408C809.475 425.112 809.543 425.055 809.61 424.999C809.678 424.932 809.751 424.876 809.829 424.831H810.133C810.2 424.786 810.267 424.746 810.335 424.713C810.402 424.668 810.475 424.623 810.554 424.578H810.503C810.526 424.555 810.554 424.539 810.588 424.527C810.621 424.516 810.649 424.505 810.672 424.494H810.436C810.458 424.471 810.486 424.454 810.52 424.443C810.554 424.432 810.588 424.421 810.621 424.409H810.453C810.61 424.342 810.773 424.28 810.941 424.224C811.121 424.168 811.301 424.117 811.481 424.072H811.733C811.992 424.016 812.262 423.971 812.542 423.938C812.834 423.904 813.138 423.887 813.452 423.887C814.048 423.887 814.61 423.949 815.138 424.072H814.902C815.261 424.151 815.609 424.263 815.946 424.409H816.098C816.132 424.421 816.166 424.432 816.199 424.443C816.233 424.454 816.267 424.471 816.3 424.494H816.536C816.559 424.505 816.587 424.516 816.621 424.527C816.654 424.539 816.682 424.555 816.705 424.578H816.755C816.834 424.623 816.907 424.668 816.974 424.713C817.053 424.746 817.126 424.786 817.193 424.831H816.907C816.997 424.876 817.076 424.932 817.143 424.999C817.222 425.055 817.295 425.112 817.362 425.168H817.109L817.379 425.421H817.851L817.935 425.505H817.581C817.626 425.55 817.665 425.595 817.699 425.64C817.744 425.673 817.783 425.713 817.817 425.758H817.952L818.154 426.01H818.306L818.457 426.263H818.272C818.306 426.319 818.334 426.375 818.356 426.432H818.221C818.255 426.488 818.283 426.544 818.306 426.6C818.328 426.656 818.351 426.712 818.373 426.769H818.66C818.682 426.836 818.693 426.892 818.693 426.937H818.896C818.907 426.96 818.912 426.988 818.912 427.021C818.912 427.055 818.918 427.083 818.929 427.106H820.126V427.19H819.047C819.058 427.235 819.064 427.297 819.064 427.375V427.443H818.441C818.396 427.645 818.283 427.746 818.103 427.746H814.733C814.576 427.746 814.447 427.724 814.346 427.679C814.256 427.634 814.16 427.566 814.059 427.476L814.008 427.443H814.632C814.576 427.398 814.497 427.353 814.396 427.308C814.295 427.252 814.166 427.212 814.008 427.19H813.402C813.166 427.224 813.003 427.308 812.913 427.443H813.638C813.604 427.51 813.587 427.578 813.587 427.645C813.587 427.701 813.593 427.746 813.604 427.78H813.351C813.363 427.836 813.407 427.892 813.486 427.948H811.582C811.649 428.004 811.767 428.061 811.936 428.117H812.424C812.514 428.151 812.621 428.184 812.745 428.218C812.879 428.24 813.02 428.263 813.166 428.285H813.705C813.795 428.297 813.891 428.308 813.992 428.319C814.093 428.33 814.199 428.347 814.312 428.37H814.329C814.52 428.392 814.705 428.42 814.885 428.454C815.065 428.476 815.233 428.504 815.39 428.538H815.491C815.626 428.561 815.75 428.589 815.862 428.622C815.986 428.645 816.104 428.673 816.216 428.707H816.283C816.34 428.718 816.39 428.729 816.435 428.74C816.48 428.752 816.525 428.768 816.57 428.791H816.25C816.295 428.802 816.334 428.813 816.368 428.825C816.413 428.836 816.458 428.853 816.503 428.875H817.21C817.244 428.886 817.278 428.898 817.311 428.909C817.356 428.92 817.396 428.937 817.429 428.959H815.053C815.278 429.049 815.458 429.134 815.593 429.212H818.542C818.609 429.257 818.676 429.302 818.744 429.347C818.811 429.381 818.873 429.42 818.929 429.465H815.087C815.109 429.476 815.132 429.487 815.154 429.499C815.177 429.51 815.194 429.527 815.205 429.549H816.823C816.856 429.572 816.89 429.6 816.924 429.633C816.958 429.667 816.986 429.695 817.008 429.718H816.755C816.868 429.819 816.963 429.931 817.042 430.055H816.166C816.188 430.077 816.21 430.105 816.233 430.139C816.255 430.173 816.272 430.201 816.283 430.223H819.62L819.772 430.476H816.637C816.66 430.521 816.682 430.566 816.705 430.611C816.727 430.645 816.744 430.684 816.755 430.729H818.205L818.255 430.897H818.491L818.542 431.066H818.845C818.867 431.111 818.879 431.167 818.879 431.234C818.89 431.291 818.901 431.347 818.912 431.403L818.929 431.571H819.03C819.042 431.594 819.047 431.622 819.047 431.656C819.047 431.689 819.047 431.717 819.047 431.74H819.098V431.993H819.249V432.043C819.249 432.088 819.244 432.133 819.233 432.178C819.233 432.223 819.233 432.274 819.233 432.33H819.064V432.414H819.098C819.098 432.459 819.092 432.504 819.081 432.549C819.081 432.583 819.075 432.622 819.064 432.667H819.115L819.064 432.92H819.199C819.188 432.965 819.176 433.009 819.165 433.054C819.154 433.088 819.137 433.127 819.115 433.172H818.929C818.929 433.184 818.924 433.195 818.912 433.206C818.912 433.217 818.912 433.234 818.912 433.257H819.317L819.216 433.509H818.087C818.075 433.554 818.053 433.599 818.019 433.644C817.997 433.678 817.974 433.717 817.952 433.762H820.328L820.277 433.846H821.305C821.283 433.891 821.255 433.936 821.221 433.981C821.199 434.015 821.171 434.054 821.137 434.099H819.03C819.019 434.11 819.008 434.122 818.997 434.133C818.985 434.144 818.974 434.161 818.963 434.183ZM814.581 427.19H815.087C815.053 427.179 815.014 427.173 814.969 427.173C814.935 427.173 814.896 427.173 814.851 427.173C814.806 427.173 814.761 427.173 814.716 427.173C814.671 427.173 814.626 427.179 814.581 427.19ZM789.277 451.908V451.993H790.591V452.161H790.524V452.414H787.036V452.498H787.642V452.751H789.496V452.92H788.535V453.257H788.485V453.341H787.373V453.594H789.024V453.678H789.092V453.931H789.26V454.268H786.008V454.521H789.445V454.689H788.3V454.942H788.148V455.11H788.535V455.279H788.283V455.447H788.873L788.822 455.616H789.614C789.592 455.65 789.563 455.683 789.53 455.717C789.507 455.739 789.479 455.762 789.445 455.784H789.833C789.777 455.829 789.698 455.852 789.597 455.852H786.294C786.193 455.852 786.114 455.829 786.058 455.784H785.671C785.592 455.751 785.536 455.695 785.502 455.616H784.71L784.66 455.447H784.07V455.279H784.323V455.11H783.935V454.942H784.087V454.689H785.233V454.521H782.182V454.689H780.784V454.942H781.744V455.11H781.508V455.279H782.385V455.447H781.441L781.39 455.616H781.761C781.716 455.695 781.666 455.751 781.609 455.784H781.205C781.149 455.829 781.07 455.852 780.969 455.852H777.666C777.554 455.852 777.469 455.829 777.413 455.784H777.818C777.762 455.751 777.711 455.695 777.666 455.616H777.278C777.245 455.56 777.228 455.504 777.228 455.447H778.172V455.279H777.295V455.11H777.531V454.942H776.571V454.689H777.969V454.521H778.778V454.268H776.183V453.931H777.144V453.678H777.818V453.594H777.346V453.341H776.554V453.257H776.722V452.92H777.262V452.751H777.514V452.498H776.301V452.414H779.419V452.161H775.61V451.993H779.2V451.908H777.447V451.656H778.458V451.571H778.66V451.487H778.576V451.15H776.908V450.897H777.464V450.813H777.312V450.56H777.38V450.476H777.396V450.308H777.413V450.223H777.194V450.139H776.537V449.886H776.756V449.633H776.419V449.381H777.262V449.044H777.076V448.875H775.846V448.791H777.818V448.622H778.29V448.538H773.74V448.454H776.419V448.37H777.38V448.117H775.661V447.78H775.189V447.527H777.211V447.19H777.38V446.937H778.458V446.853H777.531V446.516H778.29V446.347H777.38V446.263H777.059V446.095H776.571V445.926H775.981V445.589H777.043V445.336H777.683V445.083H777.38V444.915H776.958V444.831H777.194V444.662H777.144V444.511C777.144 444.432 777.16 444.37 777.194 444.325H778.273C778.284 444.291 778.301 444.263 778.323 444.241C778.346 444.207 778.368 444.179 778.391 444.157H780.986C781.053 444.089 781.149 444.056 781.272 444.056H787.743C787.856 444.056 787.951 444.089 788.03 444.157H790.625C790.648 444.179 790.67 444.207 790.693 444.241C790.726 444.263 790.749 444.291 790.76 444.325H788.586C788.608 444.393 788.62 444.454 788.62 444.511V444.662H788.704V444.831H788.94V444.915H788.485V445.083H788.283V445.336H788.94V445.589H787.356V445.926H789.176V446.095H787.861V446.263H788.401V446.347H788.131V446.516H789.395V446.853H787.541V446.937H788.974V447.19H788.721V447.527H787.373V447.78H786.817V448.117H788.535V448.37H787.575V448.454H784.895V448.538H789.445V448.622H788.974V448.791H787.002V448.875H788.232V449.044H788.418V449.381H787.575V449.633H787.912V449.886H787.693V450.139H788.35V450.223H788.569V450.308H788.552V450.476H788.535V450.56H788.468V450.813H788.62V450.897H788.064V451.15H789.732V451.487H789.816V451.571H789.614V451.656H788.603V451.908H789.277ZM779.402 447.527V447.78H779.874V448.049H782.604V447.78H783.16V447.527H784.508V447.19H784.761V446.937H783.328V446.853H785.182V446.516H783.918V446.347H784.188V446.263H783.648V446.095H784.963V445.926H783.143V445.589H784.727V445.336H784.07V445.083H784.272V444.915H784.727V444.831H784.491V444.662H784.407V444.511C784.407 444.454 784.418 444.393 784.44 444.325H786.614C786.637 444.291 786.659 444.263 786.682 444.241C786.704 444.207 786.727 444.179 786.749 444.157H782.267C782.323 444.202 782.368 444.258 782.401 444.325H781.323C781.345 444.359 781.357 444.421 781.357 444.511V444.662H781.407V444.831H781.171V444.915H781.593V445.083H781.896V445.336H781.255V445.589H780.194V445.926H780.784V446.095H781.272V446.263H781.593V446.347H782.503V446.516H781.744V446.853H782.671V446.937H781.593V447.19H781.424V447.527H779.402ZM786.378 452.161V451.993H785.064V451.908H784.39V451.757H781.66V451.908H783.413V451.993H779.823V452.161H783.632V452.414H786.311V452.161H786.378ZM785.283 452.751H783.429V452.498H782.823V452.414H780.514V452.498H781.727V452.751H781.475V452.92H780.935V453.257H780.767V453.341H781.559V453.594H782.031V453.678H781.357V453.931H780.396V454.268H785.047V453.931H784.879V453.678H784.811V453.594H783.16V453.341H784.272V453.257H784.323V452.92H785.283V452.751ZM801.047 452.92H802.379V453.172H799.817V453.509H801.469V453.846H800.019V454.183H800.205V454.436H800.087V454.605H799.733V454.773H799.716V454.942H800.07V455.279H800.559V455.397C800.559 455.419 800.553 455.436 800.542 455.447H797.542C797.531 455.47 797.525 455.498 797.525 455.532H798.688C798.654 455.644 798.593 455.728 798.503 455.784H798.182C798.126 455.829 798.048 455.852 797.947 455.852H789.167C789.077 455.852 788.993 455.829 788.914 455.784H789.234C789.156 455.728 789.094 455.644 789.049 455.532H787.869C787.858 455.509 787.852 455.481 787.852 455.447H790.869V455.279H790.38V454.942H790.026V454.773H790.043V454.605H790.397V454.436H790.515V454.183H790.33V453.846H791.779V453.509H790.127V453.172H792.689V452.92H791.357V452.751H791.745V452.583H791.914V452.414H790.043V452.246H789.605V451.993H791.172V451.908H789.925V451.74H790.296V451.571H790.565V451.319H790.532V450.982H790.363V450.645H790.11V450.476H790.313V450.139H790.127V449.971H790.397V449.718H790.464V449.465H790.768V449.381H790.481V449.044H790.228V448.791H790.296V448.538H790.33V448.201H790.582V447.864H790.212V447.527H790.262V447.19H790.734V446.937H790.481V446.684H790.346V446.6H791.054V446.347H792.301V446.179H791.796V446.01H790.161V445.926H790.346V445.673H790.363V445.421H790.414V445.083H790.397V444.662H790.363V444.511C790.363 444.466 790.369 444.432 790.38 444.409H790.212C790.257 444.173 790.403 444.056 790.65 444.056H799.295C799.553 444.056 799.699 444.173 799.733 444.409H799.901C799.913 444.432 799.918 444.466 799.918 444.511V444.662H799.952V445.083H799.969V445.421H799.918V445.673H799.901V445.926H799.716V446.01H801.351V446.179H801.856V446.347H800.609V446.6H799.901V446.684H800.036V446.937H800.289C800.267 447.05 800.227 447.134 800.171 447.19H799.699C799.621 447.291 799.508 447.342 799.362 447.342H794.307V447.527H794.256V447.864H794.627V448.201H794.374V448.403H799.059C799.182 448.403 799.289 448.448 799.379 448.538H799.345C799.401 448.594 799.441 448.679 799.463 448.791H799.413V449.044H799.665V449.381H799.952V449.465H799.649V449.718H799.581V449.971H799.312V450.139H799.497V450.476H799.295V450.645H799.547V450.982H799.716V451.049C799.716 451.173 799.688 451.262 799.632 451.319H799.665C799.576 451.442 799.452 451.504 799.295 451.504H794.61V451.571H794.34V451.74H793.97V451.908H795.217V451.993H793.649V452.246H794.087V452.414H795.958V452.566H801.148C801.205 452.566 801.25 452.571 801.283 452.583H801.098C801.21 452.616 801.294 452.672 801.351 452.751H800.963C801.008 452.818 801.036 452.875 801.047 452.92ZM812.372 449.128H811.546C811.535 449.173 811.523 449.218 811.512 449.263C811.501 449.296 811.484 449.336 811.462 449.381H811.933L811.883 449.549H811.478C811.445 449.65 811.4 449.763 811.344 449.886H811.091C811.046 449.999 810.984 450.111 810.906 450.223H810.939C810.894 450.279 810.855 450.336 810.821 450.392C810.788 450.448 810.748 450.504 810.703 450.56H812.523L812.304 450.813H810.804C810.759 450.869 810.703 450.925 810.636 450.982C810.568 451.038 810.507 451.094 810.451 451.15H810.67C810.625 451.195 810.568 451.24 810.501 451.285C810.445 451.319 810.389 451.358 810.333 451.403H810.889L810.821 451.453L810.973 451.74H810.568L810.754 452.077H810.804L810.855 452.161H810.838L811.007 452.498H811.175L811.276 452.667H809.979L810.113 452.92H811.293L811.394 453.088H811.023L811.158 453.341H812.827L813.012 453.678H811.9L812.035 453.931H811.512L811.782 454.436H811.9L812.001 454.605H811.95L812.001 454.689H811.209L811.394 455.026L811.428 455.11H810.906L810.99 455.296C811.023 455.341 811.04 455.391 811.04 455.447H811.394V455.481C811.394 455.605 811.344 455.706 811.243 455.784H811.698C811.641 455.829 811.568 455.852 811.478 455.852H808.024C807.956 455.852 807.895 455.846 807.838 455.835C807.794 455.812 807.743 455.796 807.687 455.784H807.232C807.142 455.739 807.063 455.683 806.996 455.616C806.94 455.548 806.895 455.492 806.861 455.447H806.524L806.49 455.397L806.372 455.11H806.912L806.861 455.026H805.26V455.11H804.401V455.447H805.766C805.743 455.605 805.67 455.717 805.547 455.784H805.429C805.35 455.829 805.266 455.852 805.176 455.852H801.873C801.772 455.852 801.693 455.829 801.637 455.784H801.772C801.648 455.717 801.575 455.605 801.553 455.447H800.205C800.205 455.436 800.205 455.431 800.205 455.431C800.193 455.419 800.188 455.408 800.188 455.397V455.11H801.047V455.026H802.732V454.689H800.929V454.605H801.991V454.436H801.637V454.183H802.227V453.931H801.266V453.678H802.564V453.341H801.822V453.088H801.806V453.004H801.704V452.92H801.249V452.667H801.822V452.498H801.671V452.161H801.688V452.077H801.637V451.74H802.041V451.403H801.468V451.15H801.249V450.813H802.732V450.56H800.912V450.223H800.879V449.886H801.131V449.549H801.519V449.381H801.047V449.128H801.873V448.959H803.086V448.791H801.418V448.707H801.502V448.622H801.654V448.538H801.671V448.37H801.637V448.117H801.704V447.78H801.62V447.611H801.704V447.358H801.637V447.274H801.688V447.106H801.671V447.021H801.603V446.937H801.755V446.684H801.89V446.432H801.098V446.095H801.283V445.758H801.182V445.505H801.637V445.252H801.806V444.999H801.502V444.831H801.62V444.746H801.654V444.494H801.688C801.688 444.37 801.738 444.258 801.839 444.157H802.749C802.817 444.089 802.912 444.056 803.036 444.056H808.024C808.507 444.056 808.956 444.089 809.372 444.157H808.479C808.928 444.224 809.355 444.336 809.76 444.494H809.726C809.917 444.561 810.102 444.645 810.282 444.746H810.248L810.4 444.831H810.265C810.321 444.853 810.366 444.881 810.4 444.915C810.445 444.949 810.49 444.977 810.535 444.999H810.838C810.894 445.044 810.95 445.089 811.007 445.134C811.063 445.168 811.113 445.207 811.158 445.252H810.99C811.046 445.297 811.091 445.342 811.125 445.387C811.17 445.421 811.214 445.46 811.259 445.505H810.804C810.849 445.55 810.889 445.595 810.922 445.64C810.956 445.673 810.99 445.713 811.023 445.758H811.108C811.198 445.87 811.276 445.982 811.344 446.095H811.175C811.209 446.14 811.237 446.196 811.259 446.263C811.293 446.319 811.327 446.375 811.361 446.432H812.153L812.254 446.684H812.119C812.13 446.729 812.141 446.774 812.153 446.819C812.175 446.853 812.192 446.892 812.203 446.937H812.035L812.068 447.021H812.136C812.147 447.044 812.153 447.072 812.153 447.106L812.203 447.274H812.254C812.254 447.308 812.259 447.336 812.271 447.358H812.287C812.299 447.403 812.304 447.448 812.304 447.493C812.315 447.527 812.321 447.566 812.321 447.611H812.102C812.102 447.634 812.102 447.662 812.102 447.696C812.102 447.729 812.108 447.757 812.119 447.78H812.22C812.22 447.836 812.22 447.892 812.22 447.948C812.231 448.004 812.237 448.061 812.237 448.117V448.285H812.338V448.37H812.237V448.538H812.068C812.068 448.549 812.063 448.561 812.051 448.572C812.051 448.583 812.051 448.6 812.051 448.622H812.22C812.22 448.634 812.214 448.645 812.203 448.656C812.203 448.667 812.203 448.684 812.203 448.707H812.995C812.984 448.729 812.978 448.757 812.978 448.791H813.197L813.181 448.959H812.405C812.383 449.027 812.372 449.083 812.372 449.128ZM805.631 448.791H807.299V448.959H806.086V448.976H807.316C807.395 448.976 807.457 448.971 807.501 448.959H808.277C808.4 448.926 808.513 448.87 808.614 448.791H808.378L808.462 448.707H807.67C807.704 448.673 807.726 448.645 807.737 448.622H807.569L807.619 448.538H807.788L807.838 448.37H807.923C807.934 448.347 807.94 448.319 807.94 448.285H807.838L807.855 448.117C807.855 448.004 807.838 447.892 807.805 447.78H807.704C807.692 447.757 807.681 447.729 807.67 447.696C807.67 447.662 807.659 447.634 807.636 447.611H807.872C807.827 447.521 807.765 447.437 807.687 447.358H807.653C807.619 447.325 807.58 447.297 807.535 447.274H807.485C807.372 447.218 807.254 447.19 807.131 447.19H805.901V447.274H805.85V447.358H805.917V447.611H805.833V447.78H805.917V448.117H805.85V448.37H805.884V448.538H805.867V448.622H805.715V448.707H805.631V448.791ZM806.962 452.667L806.895 452.498H806.709L806.575 452.178H805.884V452.498H806.035V452.667H806.962ZM805.462 452.667V452.92H805.783L805.681 452.667H805.462ZM806.996 453.004L806.962 452.92H805.917V453.004H806.018V453.088H806.035V453.341H806.777V453.678H805.479V453.931H806.44V454.183H805.85V454.436H806.204V454.605H805.142V454.689H807.518L807.468 454.605H807.518L807.434 454.436H807.299L807.198 454.183L807.08 453.931H807.619L807.501 453.678H808.597L808.445 453.341H806.777L806.676 453.088H807.046L806.996 453.004ZM824.449 452.92H825.78V453.172H823.219V453.509H824.87V453.846H823.421V454.183H823.606V454.436H823.488V454.605H823.135V454.773H823.118V454.942H823.472V455.279H823.96V455.397C823.96 455.419 823.955 455.436 823.943 455.447H820.944C820.933 455.47 820.927 455.498 820.927 455.532H822.09C822.056 455.644 821.994 455.728 821.904 455.784H821.584C821.528 455.829 821.449 455.852 821.348 455.852H812.568C812.479 455.852 812.394 455.829 812.316 455.784H812.636C812.557 455.728 812.495 455.644 812.45 455.532H811.271C811.26 455.509 811.254 455.481 811.254 455.447H814.27V455.279H813.782V454.942H813.428V454.773H813.445V454.605H813.799V454.436H813.917V454.183H813.731V453.846H815.18V453.509H813.529V453.172H816.09V452.92H814.759V452.751H815.147V452.583H815.315V452.414H813.445V452.246H813.007V451.993H814.574V451.908H813.327V451.74H813.698V451.571H813.967V451.319H813.933V450.982H813.765V450.645H813.512V450.476H813.714V450.139H813.529V449.971H813.799V449.718H813.866V449.465H814.169V449.381H813.883V449.044H813.63V448.791H813.698V448.538H813.731V448.201H813.984V447.864H813.613V447.527H813.664V447.19H814.136V446.937H813.883V446.684H813.748V446.6H814.456V446.347H815.703V446.179H815.197V446.01H813.563V445.926H813.748V445.673H813.765V445.421H813.815V445.083H813.799V444.662H813.765V444.511C813.765 444.466 813.771 444.432 813.782 444.409H813.613C813.658 444.173 813.804 444.056 814.051 444.056H822.696C822.955 444.056 823.101 444.173 823.135 444.409H823.303C823.314 444.432 823.32 444.466 823.32 444.511V444.662H823.354V445.083H823.37V445.421H823.32V445.673H823.303V445.926H823.118V446.01H824.752V446.179H825.258V446.347H824.011V446.6H823.303V446.684H823.438V446.937H823.691C823.668 447.05 823.629 447.134 823.573 447.19H823.101C823.022 447.291 822.91 447.342 822.764 447.342H817.708V447.527H817.658V447.864H818.028V448.201H817.776V448.403H822.46C822.584 448.403 822.691 448.448 822.781 448.538H822.747C822.803 448.594 822.842 448.679 822.865 448.791H822.814V449.044H823.067V449.381H823.354V449.465H823.05V449.718H822.983V449.971H822.713V450.139H822.899V450.476H822.696V450.645H822.949V450.982H823.118V451.049C823.118 451.173 823.09 451.262 823.033 451.319H823.067C822.977 451.442 822.854 451.504 822.696 451.504H818.012V451.571H817.742V451.74H817.371V451.908H818.618V451.993H817.051V452.246H817.489V452.414H819.36V452.566H824.55C824.606 452.566 824.651 452.571 824.685 452.583H824.5C824.612 452.616 824.696 452.672 824.752 452.751H824.365C824.41 452.818 824.438 452.875 824.449 452.92Z" fill="#231C45"/>
</g>
<defs>
<filter id="filter0_i_1059_113" x="1889" y="0" width="34" height="826" filterUnits="userSpaceOnUse" color-interpolation-filters="sRGB">
<feFlood flood-opacity="0" result="BackgroundImageFix"/>
<feBlend mode="normal" in="SourceGraphic" in2="BackgroundImageFix" result="shape"/>
<feColorMatrix in="SourceAlpha" type="matrix" values="0 0 0 0 0 0 0 0 0 0 0 0 0 0 0 0 0 0 127 0" result="hardAlpha"/>
<feOffset dx="3"/>
<feGaussianBlur stdDeviation="2"/>
<feComposite in2="hardAlpha" operator="arithmetic" k2="-1" k3="1"/>
<feColorMatrix type="matrix" values="0 0 0 0 0 0 0 0 0 0 0 0 0 0 0 0 0 0 1 0"/>
<feBlend mode="normal" in2="shape" result="effect1_innerShadow_1059_113"/>
</filter>
<filter id="filter1_i_1059_113" x="1700.1" y="0" width="34" height="826" filterUnits="userSpaceOnUse" color-interpolation-filters="sRGB">
<feFlood flood-opacity="0" result="BackgroundImageFix"/>
<feBlend mode="normal" in="SourceGraphic" in2="BackgroundImageFix" result="shape"/>
<feColorMatrix in="SourceAlpha" type="matrix" values="0 0 0 0 0 0 0 0 0 0 0 0 0 0 0 0 0 0 127 0" result="hardAlpha"/>
<feOffset dx="3"/>
<feGaussianBlur stdDeviation="2"/>
<feComposite in2="hardAlpha" operator="arithmetic" k2="-1" k3="1"/>
<feColorMatrix type="matrix" values="0 0 0 0 0 0 0 0 0 0 0 0 0 0 0 0 0 0 1 0"/>
<feBlend mode="normal" in2="shape" result="effect1_innerShadow_1059_113"/>
</filter>
<filter id="filter2_i_1059_113" x="1511.2" y="0" width="34" height="826" filterUnits="userSpaceOnUse" color-interpolation-filters="sRGB">
<feFlood flood-opacity="0" result="BackgroundImageFix"/>
<feBlend mode="normal" in="SourceGraphic" in2="BackgroundImageFix" result="shape"/>
<feColorMatrix in="SourceAlpha" type="matrix" values="0 0 0 0 0 0 0 0 0 0 0 0 0 0 0 0 0 0 127 0" result="hardAlpha"/>
<feOffset dx="3"/>
<feGaussianBlur stdDeviation="2"/>
<feComposite in2="hardAlpha" operator="arithmetic" k2="-1" k3="1"/>
<feColorMatrix type="matrix" values="0 0 0 0 0 0 0 0 0 0 0 0 0 0 0 0 0 0 1 0"/>
<feBlend mode="normal" in2="shape" result="effect1_innerShadow_1059_113"/>
</filter>
<filter id="filter3_i_1059_113" x="1322.3" y="0" width="34" height="826" filterUnits="userSpaceOnUse" color-interpolation-filters="sRGB">
<feFlood flood-opacity="0" result="BackgroundImageFix"/>
<feBlend mode="normal" in="SourceGraphic" in2="BackgroundImageFix" result="shape"/>
<feColorMatrix in="SourceAlpha" type="matrix" values="0 0 0 0 0 0 0 0 0 0 0 0 0 0 0 0 0 0 127 0" result="hardAlpha"/>
<feOffset dx="3"/>
<feGaussianBlur stdDeviation="2"/>
<feComposite in2="hardAlpha" operator="arithmetic" k2="-1" k3="1"/>
<feColorMatrix type="matrix" values="0 0 0 0 0 0 0 0 0 0 0 0 0 0 0 0 0 0 1 0"/>
<feBlend mode="normal" in2="shape" result="effect1_innerShadow_1059_113"/>
</filter>
<filter id="filter4_i_1059_113" x="1133.4" y="0" width="32" height="826" filterUnits="userSpaceOnUse" color-interpolation-filters="sRGB">
<feFlood flood-opacity="0" result="BackgroundImageFix"/>
<feBlend mode="normal" in="SourceGraphic" in2="BackgroundImageFix" result="shape"/>
<feColorMatrix in="SourceAlpha" type="matrix" values="0 0 0 0 0 0 0 0 0 0 0 0 0 0 0 0 0 0 127 0" result="hardAlpha"/>
<feOffset dx="1"/>
<feGaussianBlur stdDeviation="2"/>
<feComposite in2="hardAlpha" operator="arithmetic" k2="-1" k3="1"/>
<feColorMatrix type="matrix" values="0 0 0 0 0 0 0 0 0 0 0 0 0 0 0 0 0 0 1 0"/>
<feBlend mode="normal" in2="shape" result="effect1_innerShadow_1059_113"/>
</filter>
<filter id="filter5_i_1059_113" x="944.5" y="0" width="33" height="826" filterUnits="userSpaceOnUse" color-interpolation-filters="sRGB">
<feFlood flood-opacity="0" result="BackgroundImageFix"/>
<feBlend mode="normal" in="SourceGraphic" in2="BackgroundImageFix" result="shape"/>
<feColorMatrix in="SourceAlpha" type="matrix" values="0 0 0 0 0 0 0 0 0 0 0 0 0 0 0 0 0 0 127 0" result="hardAlpha"/>
<feOffset dx="2"/>
<feGaussianBlur stdDeviation="2"/>
<feComposite in2="hardAlpha" operator="arithmetic" k2="-1" k3="1"/>
<feColorMatrix type="matrix" values="0 0 0 0 0 0 0 0 0 0 0 0 0 0 0 0 0 0 1 0"/>
<feBlend mode="normal" in2="shape" result="effect1_innerShadow_1059_113"/>
</filter>
<filter id="filter6_i_1059_113" x="754.6" y="0" width="32" height="826" filterUnits="userSpaceOnUse" color-interpolation-filters="sRGB">
<feFlood flood-opacity="0" result="BackgroundImageFix"/>
<feBlend mode="normal" in="SourceGraphic" in2="BackgroundImageFix" result="shape"/>
<feColorMatrix in="SourceAlpha" type="matrix" values="0 0 0 0 0 0 0 0 0 0 0 0 0 0 0 0 0 0 127 0" result="hardAlpha"/>
<feOffset dx="-1"/>
<feGaussianBlur stdDeviation="2"/>
<feComposite in2="hardAlpha" operator="arithmetic" k2="-1" k3="1"/>
<feColorMatrix type="matrix" values="0 0 0 0 0 0 0 0 0 0 0 0 0 0 0 0 0 0 1 0"/>
<feBlend mode="normal" in2="shape" result="effect1_innerShadow_1059_113"/>
</filter>
<filter id="filter7_i_1059_113" x="563.699" y="0" width="34" height="826" filterUnits="userSpaceOnUse" color-interpolation-filters="sRGB">
<feFlood flood-opacity="0" result="BackgroundImageFix"/>
<feBlend mode="normal" in="SourceGraphic" in2="BackgroundImageFix" result="shape"/>
<feColorMatrix in="SourceAlpha" type="matrix" values="0 0 0 0 0 0 0 0 0 0 0 0 0 0 0 0 0 0 127 0" result="hardAlpha"/>
<feOffset dx="-3"/>
<feGaussianBlur stdDeviation="2"/>
<feComposite in2="hardAlpha" operator="arithmetic" k2="-1" k3="1"/>
<feColorMatrix type="matrix" values="0 0 0 0 0 0 0 0 0 0 0 0 0 0 0 0 0 0 1 0"/>
<feBlend mode="normal" in2="shape" result="effect1_innerShadow_1059_113"/>
</filter>
<filter id="filter8_i_1059_113" x="374.801" y="0" width="34" height="826" filterUnits="userSpaceOnUse" color-interpolation-filters="sRGB">
<feFlood flood-opacity="0" result="BackgroundImageFix"/>
<feBlend mode="normal" in="SourceGraphic" in2="BackgroundImageFix" result="shape"/>
<feColorMatrix in="SourceAlpha" type="matrix" values="0 0 0 0 0 0 0 0 0 0 0 0 0 0 0 0 0 0 127 0" result="hardAlpha"/>
<feOffset dx="-3"/>
<feGaussianBlur stdDeviation="2"/>
<feComposite in2="hardAlpha" operator="arithmetic" k2="-1" k3="1"/>
<feColorMatrix type="matrix" values="0 0 0 0 0 0 0 0 0 0 0 0 0 0 0 0 0 0 1 0"/>
<feBlend mode="normal" in2="shape" result="effect1_innerShadow_1059_113"/>
</filter>
<filter id="filter9_i_1059_113" x="185.9" y="0" width="34" height="826" filterUnits="userSpaceOnUse" color-interpolation-filters="sRGB">
<feFlood flood-opacity="0" result="BackgroundImageFix"/>
<feBlend mode="normal" in="SourceGraphic" in2="BackgroundImageFix" result="shape"/>
<feColorMatrix in="SourceAlpha" type="matrix" values="0 0 0 0 0 0 0 0 0 0 0 0 0 0 0 0 0 0 127 0" result="hardAlpha"/>
<feOffset dx="-3"/>
<feGaussianBlur stdDeviation="2"/>
<feComposite in2="hardAlpha" operator="arithmetic" k2="-1" k3="1"/>
<feColorMatrix type="matrix" values="0 0 0 0 0 0 0 0 0 0 0 0 0 0 0 0 0 0 1 0"/>
<feBlend mode="normal" in2="shape" result="effect1_innerShadow_1059_113"/>
</filter>
<filter id="filter10_i_1059_113" x="-3" y="0" width="34" height="826" filterUnits="userSpaceOnUse" color-interpolation-filters="sRGB">
<feFlood flood-opacity="0" result="BackgroundImageFix"/>
<feBlend mode="normal" in="SourceGraphic" in2="BackgroundImageFix" result="shape"/>
<feColorMatrix in="SourceAlpha" type="matrix" values="0 0 0 0 0 0 0 0 0 0 0 0 0 0 0 0 0 0 127 0" result="hardAlpha"/>
<feOffset dx="-3"/>
<feGaussianBlur stdDeviation="2"/>
<feComposite in2="hardAlpha" operator="arithmetic" k2="-1" k3="1"/>
<feColorMatrix type="matrix" values="0 0 0 0 0 0 0 0 0 0 0 0 0 0 0 0 0 0 1 0"/>
<feBlend mode="normal" in2="shape" result="effect1_innerShadow_1059_113"/>
</filter>
<filter id="filter11_i_1059_113" x="123" y="750" width="506" height="76" filterUnits="userSpaceOnUse" color-interpolation-filters="sRGB">
<feFlood flood-opacity="0" result="BackgroundImageFix"/>
<feBlend mode="normal" in="SourceGraphic" in2="BackgroundImageFix" result="shape"/>
<feColorMatrix in="SourceAlpha" type="matrix" values="0 0 0 0 0 0 0 0 0 0 0 0 0 0 0 0 0 0 127 0" result="hardAlpha"/>
<feOffset dx="3"/>
<feComposite in2="hardAlpha" operator="arithmetic" k2="-1" k3="1"/>
<feColorMatrix type="matrix" values="0 0 0 0 0.396078 0 0 0 0 0.376471 0 0 0 0 0.709804 0 0 0 1 0"/>
<feBlend mode="normal" in2="shape" result="effect1_innerShadow_1059_113"/>
</filter>
<clipPath id="clip0_1059_113">
<rect width="1924" height="1207" fill="white"/>
</clipPath>
</defs>
</svg>
