<svg width="776" height="853" viewBox="0 0 776 853" fill="none" xmlns="http://www.w3.org/2000/svg">
<path d="M366.839 446C357.339 462.5 355.339 514.5 334.339 549.5C313.339 584.5 287.839 666 314.339 695C340.839 724 429.339 619 471.339 629.5C504.939 637.9 545.005 668 560.839 682" stroke="#443C7F" stroke-width="10"/>
<path d="M555.582 448.314C556.362 447.626 556.73 446.585 556.555 445.56L542.063 360.472C541.698 358.33 539.247 357.274 537.44 358.481L407.397 445.292C406.539 445.864 406.035 446.837 406.063 447.868L409.395 570.662C409.464 573.206 412.469 574.514 414.378 572.831L555.582 448.314Z" fill="#6767CD"/>
<path d="M360.846 156.514C361.749 156.058 362.82 156.088 363.696 156.593L431.918 195.935C433.845 197.046 433.935 199.794 432.085 201.029L302.137 287.777C301.321 288.322 300.289 288.433 299.376 288.075L193.537 246.554C191.123 245.607 190.966 242.251 193.281 241.083L360.846 156.514Z" fill="#443C7F"/>
<path d="M296.305 407.71L325.184 388.431L354.064 369.152L662.115 163.511C662.115 163.511 613.003 131.361 501.758 161.468C437.761 178.788 383.637 203.395 329.377 233.147C295.763 251.579 263.544 275.093 230.316 300.43C228.22 302.029 227.729 304.983 229.193 307.176L237.756 320.004C239.289 322.301 238.67 325.406 236.374 326.939L225.438 334.24C223.141 335.773 222.522 338.877 224.055 341.174L234.846 357.339C236.379 359.636 235.76 362.74 233.464 364.274L222.528 371.574C220.231 373.107 219.612 376.212 221.145 378.509L257.798 433.415L277.051 420.562L296.305 407.71Z" fill="#7468AA"/>
<path d="M296.305 407.71L325.184 388.431L354.064 369.152L662.115 163.51C662.115 163.51 673.806 222.444 603.907 314.488C563.696 367.439 520.363 408.21 472.16 447.037C442.297 471.092 408.196 491.792 372.011 512.705C369.731 514.023 366.82 513.342 365.358 511.152L356.402 497.736C354.869 495.439 351.764 494.82 349.468 496.354L338.531 503.654C336.235 505.187 333.13 504.568 331.597 502.272L320.352 485.427C318.819 483.13 315.714 482.511 313.417 484.044L302.481 491.345C300.185 492.878 297.08 492.259 295.547 489.962L257.798 433.415L277.051 420.562L296.305 407.71Z" fill="#9D93CB"/>
<path d="M212.242 429.552C222.785 445.345 230.084 456.279 247.926 483.006C267.562 512.421 168.046 546.868 163.181 539.578C159.167 533.566 126.387 534.808 115.026 535.428C113.402 535.516 112.319 533.737 113.129 532.326C118.642 522.717 133.488 495.099 127.497 486.125C120.198 475.191 194.026 402.264 212.242 429.552Z" fill="#223CE8"/>
<path d="M215.34 434.193C224.049 447.239 230.079 456.271 244.818 478.35C261.039 502.65 185.278 526.801 181.259 520.779C178.199 516.196 156.408 515.711 146.174 515.74C143.843 515.747 142.305 513.21 143.354 511.128C147.807 502.294 156.332 483.44 151.781 476.622C145.751 467.59 200.291 411.65 215.34 434.193Z" fill="#326AE4"/>
<path d="M219.986 441.153C225.945 450.079 230.071 456.259 240.155 471.366C251.254 487.992 200.533 503.772 197.783 499.652C195.84 496.742 183.09 496.097 175.767 495.968C173.465 495.928 171.944 493.427 172.927 491.345C175.938 484.97 180.494 473.754 177.614 469.439C173.488 463.259 209.69 425.729 219.986 441.153Z" fill="#5EA5FC"/>
<path d="M224.323 387.745C225.198 386.782 226.745 386.897 227.467 387.979L290.226 481.991C290.912 483.019 290.511 484.417 289.384 484.925L253.437 501.128C252.546 501.53 251.494 501.228 250.952 500.415L197.191 419.881C196.681 419.118 196.756 418.106 197.373 417.426L224.323 387.745Z" fill="#443C7F"/>
<circle cx="561.445" cy="231.598" r="50.0933" transform="rotate(56.2746 561.445 231.598)" fill="#A8A5FF" stroke="#4E4EA5" stroke-width="14.1965"/>
<path d="M439.777 281.157C440.307 280.719 440.971 280.477 441.659 280.47L481.743 280.077C483.907 280.056 485.381 282.264 484.532 284.254L468.797 321.124C468.527 321.756 468.048 322.277 467.441 322.598L277.344 423.133C274.152 424.821 271.247 420.469 274.03 418.168L439.777 281.157Z" fill="#4E4EA5"/>
<g clip-path="url(#clip0_1203_31)">
<path d="M471.664 738.569C471.664 738.569 472.924 735.31 467.928 730.704C462.931 726.099 451.026 722.405 449.07 714.758C447.115 707.111 446.985 718.104 447.941 719.19C447.941 719.19 435.34 703.244 436.166 683.691C436.166 683.691 434.775 684.256 434.08 686.168C434.08 686.168 431.039 673.567 430.908 668.571C430.778 663.574 424.782 679.955 424.087 692.468C423.391 704.982 427.128 719.233 429.779 723.101C429.779 723.101 427.128 722.536 427.432 723.231C427.736 723.926 430.474 729.488 431.299 729.879C431.299 729.879 428.823 728.923 429.344 730.139C429.865 731.356 434.732 739.003 440.989 741.784C447.246 744.565 452.894 747.302 457.369 747.389C461.845 747.476 465.842 746.737 469.709 747.389C473.576 748.041 473.88 741.089 473.88 741.089L471.664 738.525V738.569Z" fill="#F9AB36"/>
<path d="M639.468 670.396C639.468 670.396 678.095 667.354 681.267 665.964C684.439 664.573 693.042 681.475 691.912 686.472C690.782 691.469 686.437 703.418 686.437 703.418C686.437 703.418 689.653 716.322 686.35 730.487C683.048 744.652 665.755 751.908 665.755 751.908C665.755 751.908 649.461 756.079 641.727 763.292C633.993 770.505 621.219 744.565 621.219 744.565L629.518 683.995L639.511 670.396H639.468Z" fill="#E2E3E4"/>
<path d="M560.955 662.835C560.955 662.835 544.878 666.529 540.968 671.265C537.057 676.001 524.587 694.554 522.936 696.205C521.285 697.856 521.285 701.202 516.549 702.592C511.813 703.983 487.915 710.413 475.097 725.881C471.056 730.748 472.316 731.791 468.319 737.526C466.277 740.437 462.236 748.606 461.932 749.431C461.628 750.257 455.545 766.638 458.326 780.498C461.106 794.359 466.364 802.962 465.538 807.698C464.713 812.434 462.757 817.126 465.538 817.952C468.319 818.778 484.656 822.123 486.351 825.165C488.045 828.206 490.522 827.381 495.78 823.514C499.516 820.776 508.684 814.65 515.897 809.957C518.852 808.045 521.459 806.351 523.24 805.221C529.323 801.354 535.145 792.751 538.23 788.319C541.315 783.887 535.189 792.751 535.189 792.751L556.392 723.97L560.955 662.879" fill="#E2E3E4"/>
<path d="M523.239 805.178C523.239 805.178 514.071 812.39 516.287 817.952C518.503 823.514 523.673 825.73 523.673 825.73C523.673 825.73 529.278 825.86 532.885 828.901C536.491 831.943 535.188 833.246 538.229 830.466C541.271 827.685 552.611 816.822 554.566 813.52C554.566 813.52 549.57 814.346 560.954 813.259C572.338 812.173 576.205 813.52 590.369 805.221C604.534 796.922 622.001 781.628 630.039 778.586C638.077 775.545 641.684 763.335 641.684 763.335L643.987 666.92L585.633 662.835H560.954L556.391 723.926L523.239 805.178Z" fill="#E2E3E4"/>
<path d="M641.684 769.853C641.684 769.853 639.121 784.93 647.941 788.362C656.761 791.795 668.536 792.925 669.71 781.715C670.883 770.505 665.669 769.853 665.669 769.853L649.027 765.725L641.684 769.853Z" fill="#F1DC9A"/>
<path d="M462.974 827.337C462.974 827.337 457.021 838.46 460.28 844.5C463.539 850.54 469.231 853.494 473.532 852.147C477.834 850.8 484.742 842.936 483.699 832.03C482.657 821.124 473.836 824.991 473.836 824.991L466.841 824.861L463.017 827.381L462.974 827.337Z" fill="#F1DC9A"/>
<path d="M515.984 829.857C515.984 829.857 510.987 837.982 514.116 842.892C517.244 847.802 524.37 846.716 525.76 844.891C527.151 843.066 531.148 838.46 531.148 838.46L528.454 830.422L517.288 828.988L515.984 829.857Z" fill="#F1DC9A"/>
<path d="M591.76 756.079C591.76 756.079 591.369 761.641 594.237 767.246C597.105 772.851 609.314 773.068 612.747 770.939C616.179 768.81 623.001 760.946 615.136 754.298C607.272 747.65 601.928 748.823 601.928 748.823L594.585 751.039L591.717 756.036L591.76 756.079Z" fill="#F1DC9A"/>
<path d="M588.286 754.08L591.718 756.123C591.718 756.123 593.673 754.645 599.018 754.08C604.362 753.516 615.094 754.341 615.094 754.341C615.094 754.341 617.962 748.78 618.049 745.477C618.136 742.175 606.144 742.045 606.144 742.045L592.718 745.39L588.242 754.08H588.286Z" fill="#FBAA2B"/>
<path d="M641.684 769.853V770.244C641.684 770.244 666.363 778.543 669.709 781.715C669.709 781.715 672.099 770.2 674.879 764.595C677.66 758.99 659.889 754.341 659.889 754.341L645.29 757.861C642.944 761.423 641.684 765.595 641.684 769.853Z" fill="#F9AB36"/>
<path d="M463.974 817.213C463.974 817.213 463.105 826.903 462.975 827.337C462.845 827.772 468.189 827.294 472.404 827.989C476.618 828.684 482.484 831.465 483.701 832.03C484.917 832.595 495.171 823.514 495.171 823.514L482.31 815.78L465.973 813.477L463.974 817.213Z" fill="#F9AB36"/>
<path d="M516.68 827.381L515.984 829.857C515.984 829.857 527.021 833.203 531.148 838.46C531.148 838.46 535.885 834.854 536.71 833.464C537.536 832.073 530.193 829.032 530.193 829.032L520.199 826.99L516.68 827.337V827.381Z" fill="#F9AB36"/>
<path d="M557.217 725.447C558.477 717.278 571.512 700.637 598.277 708.936L611.182 722.232C615.483 726.663 619.785 732.095 619.35 737.048C618.916 742.001 619.481 748.823 616.439 747.172C613.398 745.521 594.801 750.213 593.02 751.908C591.238 753.602 589.848 754.906 588.327 754.037C586.806 753.168 576.248 750.257 574.727 745.521C573.206 740.785 570.295 740.785 566.124 738.743C561.953 736.7 556.261 731.66 557.26 725.447H557.217Z" fill="#5883D8"/>
<path d="M648.811 723.796C649.202 723.448 659.978 717.278 670.406 720.45C680.834 723.622 685.917 729.053 686.352 730.487C686.786 731.921 685.396 739.134 682.05 747.215C678.705 755.297 678.444 761.641 678.009 764.291C677.575 766.942 676.228 769.983 674.403 769.549C672.578 769.114 662.063 766.898 657.762 766.637C653.46 766.377 642.945 762.597 641.816 758.73C640.686 754.863 641.555 749.301 643.467 742.219C645.378 735.136 643.858 727.793 648.768 723.796H648.811Z" fill="#5883D8"/>
<path d="M460.194 782.062C462.019 778.717 469.275 775.023 487.915 777.63C506.599 780.237 526.195 786.885 528.585 791.317C530.974 795.749 532.452 797.4 529.367 800.442C528.802 800.963 526.325 803.005 523.197 805.265C520.981 806.916 518.417 808.697 516.028 810.131C510.292 813.65 509.206 816.605 506.599 818.082C503.992 819.56 492.391 828.423 489.262 828.076C486.134 827.685 486.264 825.165 482.354 823.036C478.443 820.907 464.756 818.995 463.974 817.17C463.236 815.475 464.539 812.217 464.974 809.61C466.277 801.528 462.063 795.141 460.759 791.274C459.456 787.407 457.935 786.147 460.151 782.062H460.194Z" fill="#5883D8"/>
<path d="M555.22 814.606C555.22 814.606 536.927 833.377 536.102 836.462C535.276 839.547 537.666 837.505 531.192 833.333C524.718 829.162 516.506 831.465 516.723 827.381C516.94 823.296 515.072 816.735 516.723 812.304C518.374 807.872 531.279 797.009 533.147 794.359C535.276 791.317 551.049 797.704 553.265 802.18C555.48 806.655 560.39 811.478 555.263 814.606H555.22Z" fill="#5883D8"/>
<path d="M459.152 785.06C459.152 785.06 457.935 777.326 466.668 776.544C475.402 775.762 508.25 779.064 516.636 783.105C525.022 787.146 530.974 790.752 531.105 794.359C531.105 794.359 531.67 798.399 529.584 795.619C527.498 792.838 521.676 789.232 515.593 786.538C509.51 783.844 494.259 780.933 490.218 780.368C486.177 779.803 468.841 778.499 466.364 779.108C461.802 780.237 461.237 783.409 460.976 784.104C460.716 784.8 459.195 786.581 459.152 785.06Z" fill="#231F20"/>
<path d="M533.625 795.054C533.625 795.054 543.879 794.054 549.31 801.093C554.742 808.132 556.045 813.216 556.393 813.781C556.61 814.172 560.216 815.128 558 809.219C555.915 803.744 553.568 800.137 550.744 797.921C545.53 793.794 543.836 792.881 536.884 792.881C533.929 792.881 531.843 794.489 533.712 795.097L533.625 795.054Z" fill="#231F20"/>
<path d="M599.191 706.068C597.8 703.635 587.068 702.636 578.508 704.069C569.949 705.503 565.256 708.849 561.172 712.195C559.304 713.759 553.655 721.797 554.437 725.881C555.219 729.966 557.348 729.705 557.696 727.532C558.043 725.36 562.084 711.412 575.337 709.935C588.589 708.458 594.889 709.501 597.192 709.588C599.495 709.674 600.755 708.762 599.191 706.068Z" fill="#231F20"/>
<path d="M647.854 722.84C650.678 720.667 655.501 719.103 660.324 718.886C665.147 718.669 674.098 720.667 678.834 722.883C683.57 725.099 686.611 729.227 687.306 730.791C688.002 732.355 687.697 735.484 685.829 734.311C683.526 732.877 680.876 729.097 674.793 726.577C669.101 724.23 660.585 721.927 651.981 725.751C643.378 729.575 646.333 723.926 647.81 722.796L647.854 722.84Z" fill="#231F20"/>
<path d="M601.405 765.421C601.492 767.072 602.622 769.071 601.275 770.418C600.493 769.636 600.493 768.723 600.754 767.898C600.971 767.159 600.927 765.899 601.405 765.421Z" fill="#B26127"/>
<path d="M607.446 765.638C607.576 767.42 608.836 769.766 607.315 771.2C606.273 770.027 606.881 766.985 607.446 765.638Z" fill="#B26127"/>
<path d="M612.529 765.725C612.659 767.115 613.876 769.027 612.399 770.027C611.704 769.288 611.704 768.593 611.921 767.854C612.138 767.202 612.051 766.116 612.529 765.682V765.725Z" fill="#B26127"/>
<path d="M648.16 781.584C647.769 783.409 648.377 786.016 646.509 787.059C645.857 785.408 647.291 782.844 648.16 781.584Z" fill="#B26127"/>
<path d="M655.632 784.018C654.85 785.886 654.936 788.71 652.851 789.536C652.59 787.494 654.458 785.278 655.632 784.018Z" fill="#B26127"/>
<path d="M661.715 785.451C661.194 786.972 661.541 789.405 659.673 789.927C659.369 788.884 659.673 788.145 660.238 787.494C660.716 786.885 661.107 785.756 661.759 785.451H661.715Z" fill="#B26127"/>
<path d="M466.842 843.501C466.103 845.152 466.147 847.759 464.148 848.324C463.974 847.194 464.409 846.368 465.06 845.673C465.669 845.021 466.147 843.805 466.885 843.501H466.842Z" fill="#B26127"/>
<path d="M471.621 846.064C470.795 847.628 470.708 850.279 468.666 850.67C468.536 849.54 469.014 848.758 469.709 848.106C470.317 847.498 470.925 846.325 471.621 846.064Z" fill="#B26127"/>
<path d="M476.227 846.368C475.575 847.802 475.705 850.235 473.794 850.583C473.576 849.54 473.924 848.802 474.532 848.237C475.054 847.672 475.532 846.586 476.183 846.368H476.227Z" fill="#B26127"/>
<path d="M518.113 838.504C517.331 840.155 517.375 842.849 515.333 843.414C515.028 841.719 516.984 839.46 518.113 838.504Z" fill="#B26127"/>
<path d="M521.502 841.893C520.72 843.197 520.502 845.543 518.634 845.543C518.547 844.5 518.982 843.892 519.633 843.414C520.242 842.979 520.85 841.98 521.502 841.893Z" fill="#B26127"/>
<path d="M525.153 843.544C524.544 844.543 524.457 846.455 522.85 846.108C522.676 845.239 523.023 844.761 523.588 844.5C524.066 844.239 524.631 843.457 525.153 843.544Z" fill="#B26127"/>
<path d="M574.728 631.682C574.728 631.682 566.689 638.199 567.254 643.413C567.819 648.627 568.167 650.8 566.342 651.712C564.517 652.624 556.913 658.925 560.997 662.792C565.082 666.659 585.938 674.436 593.368 674.436C600.798 674.436 608.054 671.091 613.833 673.307C619.612 675.523 659.933 673.872 669.536 671.438C679.138 669.005 691.912 665.529 691 661.097C690.088 656.665 685.265 654.927 685.091 653.016C684.917 651.104 692.304 645.542 691.912 638.72C691.521 631.899 690.044 621.514 683.614 618.951C677.183 616.387 676.792 614.345 676.792 614.345L625.26 628.423L587.85 628.51L574.771 631.682" fill="#5883D8"/>
<path d="M557.87 570.721L567.081 608.74L580.812 625.077L626.304 628.51L654.85 623.513L674.837 611.477L680.399 601.049L681.225 583.409L676.054 556.687L668.32 543.391L655.285 532.268L627.998 529.53L602.015 528.835L583.983 535.874L563.388 550.169L556.393 565.377L557.87 570.721Z" fill="#FFF6D9"/>
<path d="M567.212 614.388C567.212 614.388 569.298 610.13 582.811 604.786C596.324 599.442 604.666 593.315 606.621 590.447C608.577 587.58 586.678 585.581 586.678 585.581L570.775 595.922L563.389 607.002L567.212 614.388Z" fill="#FFDC8D"/>
<path d="M636.254 577.847C636.254 577.847 641.207 584.625 656.545 585.538C671.883 586.45 681.225 590.534 681.225 590.534L680.399 575.761L674.316 564.464L645.856 572.242L636.297 577.847" fill="#FFDC8D"/>
<path d="M584.809 550.604C584.809 550.604 609.576 560.206 610.314 579.281C611.053 598.355 582.593 602.57 572.209 602.57C561.824 602.57 562.476 601.093 562.476 601.093L557.609 566.506L579.595 547.258L584.766 550.604H584.809Z" fill="#FBAA2B"/>
<path d="M626.043 541.523C626.043 541.523 618.657 584.582 646.943 577.934C675.229 571.286 680.399 562.422 680.399 562.422L674.49 543.174L665.8 534.658H644.727L626.043 541.479V541.523Z" fill="#FBAA2B"/>
<path d="M632.691 570.678C632.431 570.46 633.126 565.246 638.209 562.379C645.379 558.338 646.813 560.423 646.204 562.118C645.553 564.03 643.032 562.726 639.252 565.029C635.733 567.158 633.126 570.982 632.691 570.678Z" fill="#935223"/>
<path d="M604.492 582.626C604.579 582.279 600.712 578.716 594.933 579.715C586.808 581.149 587.025 583.669 588.589 584.625C590.327 585.668 591.457 583.061 595.802 582.453C599.886 581.844 604.318 583.148 604.448 582.626H604.492Z" fill="#935223"/>
<path d="M622.09 600.311C622.09 600.311 625.783 612.346 631.345 609.913C636.906 607.48 631.823 597.704 631.345 596.791C630.867 595.879 630.345 596.878 630.345 596.878H627.304L625.218 596.704L623.741 598.703L622.09 600.267V600.311Z" fill="#F37B74"/>
<path d="M613.791 600.311C613.791 600.311 619.787 605.351 625.175 596.748C625.175 596.748 638.08 598.833 638.775 590.491" stroke="#B26228" stroke-width="2.1725" stroke-miterlimit="10" stroke-linecap="round"/>
<path d="M617.789 598.355C618.173 598.355 618.484 598.044 618.484 597.66C618.484 597.276 618.173 596.965 617.789 596.965C617.405 596.965 617.094 597.276 617.094 597.66C617.094 598.044 617.405 598.355 617.789 598.355Z" fill="#B15F27"/>
<path d="M613.705 597.573C614.089 597.573 614.4 597.262 614.4 596.878C614.4 596.494 614.089 596.183 613.705 596.183C613.321 596.183 613.01 596.494 613.01 596.878C613.01 597.262 613.321 597.573 613.705 597.573Z" fill="#B15F27"/>
<path d="M620.135 596.617C620.519 596.617 620.83 596.306 620.83 595.922C620.83 595.538 620.519 595.227 620.135 595.227C619.751 595.227 619.439 595.538 619.439 595.922C619.439 596.306 619.751 596.617 620.135 596.617Z" fill="#B15F27"/>
<path d="M632.519 593.489C632.903 593.489 633.215 593.178 633.215 592.794C633.215 592.41 632.903 592.099 632.519 592.099C632.135 592.099 631.824 592.41 631.824 592.794C631.824 593.178 632.135 593.489 632.519 593.489Z" fill="#B15F27"/>
<path d="M635.385 590.534C635.769 590.534 636.08 590.223 636.08 589.839C636.08 589.455 635.769 589.144 635.385 589.144C635.001 589.144 634.689 589.455 634.689 589.839C634.689 590.223 635.001 590.534 635.385 590.534Z" fill="#B15F27"/>
<path d="M629.562 593.446C629.946 593.446 630.258 593.134 630.258 592.75C630.258 592.366 629.946 592.055 629.562 592.055C629.178 592.055 628.867 592.366 628.867 592.75C628.867 593.134 629.178 593.446 629.562 593.446Z" fill="#B15F27"/>
<path d="M608.664 592.663C608.664 592.663 608.838 595.661 610.359 597.791" stroke="#B26228" stroke-width="2.1725" stroke-miterlimit="10" stroke-linecap="round"/>
<path d="M636.256 581.931C636.256 581.931 636.951 583.148 637.299 584.886" stroke="#B26228" stroke-width="2.1725" stroke-miterlimit="10" stroke-linecap="round"/>
<path d="M613.791 578.673C613.791 578.673 616.833 575.718 623.698 575.414" stroke="#B26228" stroke-width="2.1725" stroke-miterlimit="10" stroke-linecap="round"/>
<path d="M617.267 584.756C615.79 583.191 623.741 581.106 623.741 582.279C623.741 582.279 622.959 587.449 621.786 587.276C620.613 587.102 617.267 584.799 617.267 584.799V584.756Z" fill="#B26328" stroke="#B26228" stroke-width="2.1725" stroke-miterlimit="10" stroke-linecap="round"/>
<path d="M627.521 601.049L630.78 608.74" stroke="#9F4F4B" stroke-width="0.869001" stroke-miterlimit="10" stroke-linecap="round"/>
<path d="M625.174 615.953C626.043 616.344 633.994 618.429 640.555 612.173" stroke="#B15F27" stroke-width="2.1725" stroke-miterlimit="10" stroke-linecap="round"/>
<path d="M582.723 535.874C582.723 535.874 552.091 520.276 535.71 527.532C532.147 529.096 529.714 532.442 528.715 536.178C527.15 542.088 527.541 552.602 538.665 555.6L535.232 557.556L543.183 563.335L539.838 565.159C539.838 565.159 545.79 576.239 561.91 576.934C578.03 577.673 564.431 571.547 564.431 571.547L568.037 557.338L577.813 543.521L582.723 541.566V535.831V535.874Z" fill="#F9AB36"/>
<path d="M610.705 518.06C610.705 518.06 605.013 488.166 617.44 477.608C619.308 476 621.915 475.652 624.305 476.261C633.604 478.737 657.588 489.209 662.932 531.703L646.552 520.71L630.997 517.973H610.662L610.705 518.06Z" fill="#FBAA2B"/>
<path d="M571.122 539.307C569.297 539.654 564.213 541.827 564.213 541.827L566.212 536.96L560.433 537.873L561.345 536.96L556.653 535.7L560.476 534.093C560.476 534.093 538.925 531.399 538.36 536.96C537.795 542.522 540.88 551.342 540.88 551.342C540.88 551.342 540.402 551.733 538.273 551.342C538.273 551.342 541.967 554.905 545.747 555.123C545.747 555.123 543.618 556.991 540.142 556.904C540.142 556.904 543.748 559.598 546.833 560.119C549.918 560.641 551.178 561.032 551.178 561.032C551.178 561.032 549.397 562.596 546.268 562.987C546.268 562.987 556.218 575.11 563.648 577.065C571.078 579.02 571.252 574.154 571.252 574.154L576.857 550.082" fill="#CC9078"/>
<path d="M620.567 514.019C620.567 514.019 619.351 509.674 619.612 507.719L624.869 505.372L621.089 504.851L622.783 502.548L618.047 501.896L622.305 497.595L617.656 496.943C617.656 496.943 618.699 485.646 621.306 482.778C621.306 482.778 640.772 483.691 652.807 525.837L650.939 530.095L647.029 524.099L632.473 519.711L620.263 518.19L620.654 514.062L620.567 514.019Z" fill="#CC9078"/>
<path d="M546.745 566.941C545.355 569.157 543.704 570.678 544.921 572.85C546.007 574.675 547.832 575.066 550.352 574.154C549.917 578.803 542.835 579.02 541.053 574.805C538.968 570.678 542.487 566.55 546.745 566.941Z" fill="#7851A1"/>
<path d="M673.707 540.35C660.845 525.055 643.856 517.104 633.602 517.712C623.348 518.32 581.288 535.961 581.288 535.961L571.556 547.302L567.428 553.341C562.692 560.293 559.824 568.331 558.998 576.674L558.825 578.499C557.565 582.018 559.433 593.315 560.259 596.965C565.82 621.123 571.99 634.376 585.633 638.416C602.883 643.5 650.113 632.942 671.578 621.297C680.355 616.561 686.568 609.305 689.609 598.573C694.041 582.887 686.568 555.644 673.663 540.35H673.707ZM648.506 613.693L615.701 621.601C598.017 625.903 579.941 616.17 573.728 599.051C566.733 579.628 577.552 558.338 597.365 552.602L629.735 543.217C648.853 537.656 668.797 548.779 674.141 567.94L674.532 569.418C679.92 588.883 668.145 608.957 648.506 613.693Z" fill="#E2E3E4"/>
<path d="M648.506 613.693L615.701 621.601C598.017 625.903 579.941 616.17 573.728 599.051C566.733 579.628 577.552 558.338 597.365 552.602L629.735 543.217C648.853 537.656 668.797 548.779 674.141 567.94L674.532 569.418C679.92 588.883 668.145 608.957 648.506 613.693Z" stroke="#3E6FD1" stroke-width="4.34501" stroke-miterlimit="10"/>
<path opacity="0.3" d="M648.506 613.693L615.701 621.601C598.017 625.903 579.941 616.17 573.728 599.051C566.733 579.628 577.552 558.338 597.365 552.602L629.735 543.217C648.853 537.656 668.797 548.779 674.141 567.94L674.532 569.418C679.92 588.883 668.145 608.957 648.506 613.693Z" fill="#231F20"/>
<path d="M562.606 552.255C561.824 556.774 565.865 570.417 579.508 567.68C593.152 564.942 594.89 550.343 598.105 546.085C603.232 539.307 608.446 536.265 619.613 539.741C630.78 543.217 636.341 547.388 643.38 544.347C652.809 540.219 652.722 532.442 652.418 529.878C652.114 527.315 651.896 514.844 630.693 517.408C609.489 519.971 595.846 523.013 582.854 530.964C569.863 538.916 563.388 547.519 562.606 552.211V552.255Z" fill="#EF2464" stroke="#EF2464" stroke-width="4.34501" stroke-miterlimit="10"/>
<path d="M580.16 536.396C580.16 536.396 565.343 544.217 566.69 555.296C567.689 563.335 577.248 564.595 582.028 562.77C589.414 559.989 590.544 551.125 595.541 543.348C601.58 533.962 589.241 531.051 580.16 536.352V536.396Z" fill="#231F20"/>
<path d="M625.304 521.058C625.304 521.058 640.077 516.365 646.856 524.447C651.765 530.313 646.464 537.395 642.206 539.394C635.602 542.479 628.824 537.438 620.308 535.7C610.01 533.571 615.876 523.578 625.304 521.058Z" fill="#231F20"/>
</g>
<g style="mix-blend-mode:color" opacity="0.35" clip-path="url(#clip1_1203_31)">
<path d="M471.664 738.569C471.664 738.569 472.924 735.31 467.928 730.704C462.931 726.099 451.026 722.405 449.07 714.758C447.115 707.111 446.985 718.104 447.941 719.19C447.941 719.19 435.34 703.244 436.166 683.691C436.166 683.691 434.775 684.256 434.08 686.168C434.08 686.168 431.039 673.567 430.908 668.571C430.778 663.574 424.782 679.955 424.087 692.468C423.391 704.982 427.128 719.233 429.779 723.101C429.779 723.101 427.128 722.536 427.432 723.231C427.736 723.926 430.474 729.488 431.299 729.879C431.299 729.879 428.823 728.923 429.344 730.139C429.865 731.356 434.732 739.003 440.989 741.784C447.246 744.565 452.894 747.302 457.369 747.389C461.845 747.476 465.842 746.737 469.709 747.389C473.576 748.041 473.88 741.089 473.88 741.089L471.664 738.525V738.569Z" fill="#F8ACC1"/>
<path d="M639.468 670.396C639.468 670.396 678.095 667.354 681.267 665.964C684.439 664.573 693.042 681.475 691.912 686.472C690.782 691.469 686.437 703.418 686.437 703.418C686.437 703.418 689.653 716.322 686.35 730.487C683.048 744.652 665.755 751.908 665.755 751.908C665.755 751.908 649.461 756.079 641.727 763.292C633.993 770.505 621.219 744.565 621.219 744.565L629.518 683.995L639.511 670.396H639.468Z" fill="#F8ACC1"/>
<path d="M560.955 662.835C560.955 662.835 544.878 666.529 540.968 671.265C537.057 676.001 524.587 694.554 522.936 696.205C521.285 697.856 521.285 701.202 516.549 702.592C511.813 703.983 487.915 710.413 475.097 725.881C471.056 730.748 472.316 731.791 468.319 737.526C466.277 740.437 462.236 748.606 461.932 749.431C461.628 750.257 455.545 766.638 458.326 780.498C461.106 794.359 466.364 802.962 465.538 807.698C464.713 812.434 462.757 817.126 465.538 817.952C468.319 818.778 484.656 822.123 486.351 825.165C488.045 828.206 490.522 827.381 495.78 823.514C499.516 820.776 508.684 814.65 515.897 809.957C518.852 808.045 521.459 806.351 523.24 805.221C529.323 801.354 535.145 792.751 538.23 788.319C541.315 783.887 535.189 792.751 535.189 792.751L556.392 723.97L560.955 662.879" fill="#F8ACC1"/>
<path d="M523.239 805.178C523.239 805.178 514.071 812.39 516.287 817.952C518.503 823.514 523.673 825.73 523.673 825.73C523.673 825.73 529.278 825.86 532.885 828.901C536.491 831.943 535.188 833.246 538.229 830.466C541.271 827.685 552.611 816.822 554.566 813.52C554.566 813.52 549.57 814.346 560.954 813.259C572.338 812.173 576.205 813.52 590.369 805.221C604.534 796.922 622.001 781.628 630.039 778.586C638.077 775.545 641.684 763.335 641.684 763.335L643.987 666.92L585.633 662.835H560.954L556.391 723.926L523.239 805.178Z" fill="#F8ACC1"/>
<path d="M641.684 769.853C641.684 769.853 639.121 784.93 647.941 788.362C656.761 791.795 668.536 792.925 669.71 781.715C670.883 770.505 665.669 769.853 665.669 769.853L649.027 765.725L641.684 769.853Z" fill="#F8ACC1"/>
<path d="M462.974 827.337C462.974 827.337 457.021 838.46 460.28 844.5C463.539 850.54 469.231 853.494 473.532 852.147C477.834 850.8 484.742 842.936 483.699 832.03C482.657 821.124 473.836 824.991 473.836 824.991L466.841 824.861L463.017 827.381L462.974 827.337Z" fill="#F8ACC1"/>
<path d="M515.984 829.857C515.984 829.857 510.987 837.982 514.116 842.892C517.244 847.802 524.37 846.716 525.76 844.891C527.151 843.066 531.148 838.46 531.148 838.46L528.454 830.422L517.288 828.988L515.984 829.857Z" fill="#F8ACC1"/>
<path d="M591.76 756.079C591.76 756.079 591.369 761.641 594.237 767.246C597.105 772.851 609.314 773.068 612.747 770.939C616.179 768.81 623.001 760.946 615.136 754.298C607.272 747.65 601.928 748.823 601.928 748.823L594.585 751.039L591.717 756.036L591.76 756.079Z" fill="#F8ACC1"/>
<path d="M588.286 754.08L591.718 756.123C591.718 756.123 593.673 754.645 599.018 754.08C604.362 753.516 615.094 754.341 615.094 754.341C615.094 754.341 617.962 748.78 618.049 745.477C618.136 742.175 606.144 742.045 606.144 742.045L592.718 745.39L588.242 754.08H588.286Z" fill="#F8ACC1"/>
<path d="M641.684 769.853V770.244C641.684 770.244 666.363 778.543 669.709 781.715C669.709 781.715 672.099 770.2 674.879 764.595C677.66 758.99 659.889 754.341 659.889 754.341L645.29 757.861C642.944 761.423 641.684 765.595 641.684 769.853Z" fill="#F8ACC1"/>
<path d="M463.974 817.213C463.974 817.213 463.105 826.903 462.975 827.337C462.845 827.772 468.189 827.294 472.404 827.989C476.618 828.684 482.484 831.465 483.701 832.03C484.917 832.595 495.171 823.514 495.171 823.514L482.31 815.78L465.973 813.477L463.974 817.213Z" fill="#F8ACC1"/>
<path d="M516.68 827.381L515.984 829.857C515.984 829.857 527.021 833.203 531.148 838.46C531.148 838.46 535.885 834.854 536.71 833.464C537.536 832.073 530.193 829.032 530.193 829.032L520.199 826.99L516.68 827.337V827.381Z" fill="#F8ACC1"/>
<path d="M557.217 725.447C558.477 717.278 571.512 700.637 598.277 708.936L611.182 722.232C615.483 726.663 619.785 732.095 619.35 737.048C618.916 742.001 619.481 748.823 616.439 747.172C613.398 745.521 594.801 750.213 593.02 751.908C591.238 753.602 589.848 754.906 588.327 754.037C586.806 753.168 576.248 750.257 574.727 745.521C573.206 740.785 570.295 740.785 566.124 738.743C561.953 736.7 556.261 731.66 557.26 725.447H557.217Z" fill="#F8ACC1"/>
<path d="M648.811 723.796C649.202 723.448 659.978 717.278 670.406 720.45C680.834 723.622 685.917 729.053 686.352 730.487C686.786 731.921 685.396 739.134 682.05 747.215C678.705 755.297 678.444 761.641 678.009 764.291C677.575 766.942 676.228 769.983 674.403 769.549C672.578 769.114 662.063 766.898 657.762 766.637C653.46 766.377 642.945 762.597 641.816 758.73C640.686 754.863 641.555 749.301 643.467 742.219C645.378 735.136 643.858 727.793 648.768 723.796H648.811Z" fill="#F8ACC1"/>
<path d="M460.194 782.062C462.019 778.717 469.275 775.023 487.915 777.63C506.599 780.237 526.195 786.885 528.585 791.317C530.974 795.749 532.452 797.4 529.367 800.442C528.802 800.963 526.325 803.005 523.197 805.265C520.981 806.916 518.417 808.697 516.028 810.131C510.292 813.65 509.206 816.605 506.599 818.082C503.992 819.56 492.391 828.423 489.262 828.076C486.134 827.685 486.264 825.165 482.354 823.036C478.443 820.907 464.756 818.995 463.974 817.17C463.236 815.475 464.539 812.217 464.974 809.61C466.277 801.528 462.063 795.141 460.759 791.274C459.456 787.407 457.935 786.147 460.151 782.062H460.194Z" fill="#F8ACC1"/>
<path d="M555.22 814.606C555.22 814.606 536.927 833.377 536.102 836.462C535.276 839.547 537.666 837.505 531.192 833.333C524.718 829.162 516.506 831.465 516.723 827.381C516.94 823.296 515.072 816.735 516.723 812.304C518.374 807.872 531.279 797.009 533.147 794.359C535.276 791.317 551.049 797.704 553.265 802.18C555.48 806.655 560.39 811.478 555.263 814.606H555.22Z" fill="#F8ACC1"/>
<path d="M459.152 785.06C459.152 785.06 457.935 777.326 466.668 776.544C475.402 775.762 508.25 779.064 516.636 783.105C525.022 787.146 530.974 790.752 531.105 794.359C531.105 794.359 531.67 798.399 529.584 795.619C527.498 792.838 521.676 789.232 515.593 786.538C509.51 783.844 494.259 780.933 490.218 780.368C486.177 779.803 468.841 778.499 466.364 779.108C461.802 780.237 461.237 783.409 460.976 784.104C460.716 784.8 459.195 786.581 459.152 785.06Z" fill="#F8ACC1"/>
<path d="M533.625 795.054C533.625 795.054 543.879 794.054 549.31 801.093C554.742 808.132 556.045 813.216 556.393 813.781C556.61 814.172 560.216 815.128 558 809.219C555.915 803.744 553.568 800.137 550.744 797.921C545.53 793.794 543.836 792.881 536.884 792.881C533.929 792.881 531.843 794.489 533.712 795.097L533.625 795.054Z" fill="#F8ACC1"/>
<path d="M599.191 706.068C597.8 703.635 587.068 702.636 578.508 704.069C569.949 705.503 565.256 708.849 561.172 712.195C559.304 713.759 553.655 721.797 554.437 725.881C555.219 729.966 557.348 729.705 557.696 727.532C558.043 725.36 562.084 711.412 575.337 709.935C588.589 708.458 594.889 709.501 597.192 709.588C599.495 709.674 600.755 708.762 599.191 706.068Z" fill="#F8ACC1"/>
<path d="M647.854 722.84C650.678 720.667 655.501 719.103 660.324 718.886C665.147 718.669 674.098 720.667 678.834 722.883C683.57 725.099 686.611 729.227 687.306 730.791C688.002 732.355 687.697 735.484 685.829 734.311C683.526 732.877 680.876 729.097 674.793 726.577C669.101 724.23 660.585 721.927 651.981 725.751C643.378 729.575 646.333 723.926 647.81 722.796L647.854 722.84Z" fill="#F8ACC1"/>
<path d="M601.405 765.421C601.492 767.072 602.622 769.071 601.275 770.418C600.493 769.636 600.493 768.723 600.754 767.898C600.971 767.159 600.927 765.899 601.405 765.421Z" fill="#F8ACC1"/>
<path d="M607.446 765.638C607.576 767.42 608.836 769.766 607.315 771.2C606.273 770.027 606.881 766.985 607.446 765.638Z" fill="#F8ACC1"/>
<path d="M612.529 765.725C612.659 767.115 613.876 769.027 612.399 770.027C611.704 769.288 611.704 768.593 611.921 767.854C612.138 767.202 612.051 766.116 612.529 765.682V765.725Z" fill="#F8ACC1"/>
<path d="M648.16 781.584C647.769 783.409 648.377 786.016 646.509 787.059C645.857 785.408 647.291 782.844 648.16 781.584Z" fill="#F8ACC1"/>
<path d="M655.632 784.018C654.85 785.886 654.936 788.71 652.851 789.536C652.59 787.494 654.458 785.278 655.632 784.018Z" fill="#F8ACC1"/>
<path d="M661.715 785.451C661.194 786.972 661.541 789.405 659.673 789.927C659.369 788.884 659.673 788.145 660.238 787.494C660.716 786.885 661.107 785.756 661.759 785.451H661.715Z" fill="#F8ACC1"/>
<path d="M466.842 843.501C466.103 845.152 466.147 847.759 464.148 848.324C463.974 847.194 464.409 846.368 465.06 845.673C465.669 845.021 466.147 843.805 466.885 843.501H466.842Z" fill="#F8ACC1"/>
<path d="M471.621 846.064C470.795 847.628 470.708 850.279 468.666 850.67C468.536 849.54 469.014 848.758 469.709 848.106C470.317 847.498 470.925 846.325 471.621 846.064Z" fill="#F8ACC1"/>
<path d="M476.227 846.368C475.575 847.802 475.705 850.235 473.794 850.583C473.576 849.54 473.924 848.802 474.532 848.237C475.054 847.672 475.532 846.586 476.183 846.368H476.227Z" fill="#F8ACC1"/>
<path d="M518.113 838.504C517.331 840.155 517.375 842.849 515.333 843.414C515.028 841.719 516.984 839.46 518.113 838.504Z" fill="#F8ACC1"/>
<path d="M521.502 841.893C520.72 843.197 520.502 845.543 518.634 845.543C518.547 844.5 518.982 843.892 519.633 843.414C520.242 842.979 520.85 841.98 521.502 841.893Z" fill="#F8ACC1"/>
<path d="M525.153 843.544C524.544 844.543 524.457 846.455 522.85 846.108C522.676 845.239 523.023 844.761 523.588 844.5C524.066 844.239 524.631 843.457 525.153 843.544Z" fill="#F8ACC1"/>
<path d="M574.728 631.682C574.728 631.682 566.689 638.199 567.254 643.413C567.819 648.627 568.167 650.8 566.342 651.712C564.517 652.624 556.913 658.925 560.997 662.792C565.082 666.659 585.938 674.436 593.368 674.436C600.798 674.436 608.054 671.091 613.833 673.307C619.612 675.523 659.933 673.872 669.536 671.438C679.138 669.005 691.912 665.529 691 661.097C690.088 656.665 685.265 654.927 685.091 653.016C684.917 651.104 692.304 645.542 691.912 638.72C691.521 631.899 690.044 621.514 683.614 618.951C677.183 616.387 676.792 614.345 676.792 614.345L625.26 628.423L587.85 628.51L574.771 631.682" fill="#F8ACC1"/>
<path d="M557.87 570.721L567.081 608.74L580.812 625.077L626.304 628.51L654.85 623.513L674.837 611.477L680.399 601.049L681.225 583.409L676.054 556.687L668.32 543.391L655.285 532.268L627.998 529.53L602.015 528.835L583.983 535.874L563.388 550.169L556.393 565.377L557.87 570.721Z" fill="#F8ACC1"/>
<path d="M567.212 614.388C567.212 614.388 569.298 610.13 582.811 604.786C596.324 599.442 604.666 593.315 606.621 590.447C608.577 587.58 586.678 585.581 586.678 585.581L570.775 595.922L563.389 607.002L567.212 614.388Z" fill="#F8ACC1"/>
<path d="M636.254 577.847C636.254 577.847 641.207 584.625 656.545 585.538C671.883 586.45 681.225 590.534 681.225 590.534L680.399 575.761L674.316 564.464L645.856 572.242L636.297 577.847" fill="#F8ACC1"/>
<path d="M584.809 550.604C584.809 550.604 609.576 560.206 610.314 579.281C611.053 598.355 582.593 602.57 572.209 602.57C561.824 602.57 562.476 601.093 562.476 601.093L557.609 566.506L579.595 547.258L584.766 550.604H584.809Z" fill="#F8ACC1"/>
<path d="M626.043 541.523C626.043 541.523 618.657 584.582 646.943 577.934C675.229 571.286 680.399 562.422 680.399 562.422L674.49 543.174L665.8 534.658H644.727L626.043 541.479V541.523Z" fill="#F8ACC1"/>
<path d="M632.691 570.678C632.431 570.46 633.126 565.246 638.209 562.379C645.379 558.338 646.813 560.423 646.204 562.118C645.553 564.03 643.032 562.726 639.252 565.029C635.733 567.158 633.126 570.982 632.691 570.678Z" fill="#F8ACC1"/>
<path d="M604.492 582.626C604.579 582.279 600.712 578.716 594.933 579.715C586.808 581.149 587.025 583.669 588.589 584.625C590.327 585.668 591.457 583.061 595.802 582.453C599.886 581.844 604.318 583.148 604.448 582.626H604.492Z" fill="#F8ACC1"/>
<path d="M622.09 600.311C622.09 600.311 625.783 612.346 631.345 609.913C636.906 607.48 631.823 597.704 631.345 596.791C630.867 595.879 630.345 596.878 630.345 596.878H627.304L625.218 596.704L623.741 598.703L622.09 600.267V600.311Z" fill="#F8ACC1"/>
<path d="M613.791 600.311C613.791 600.311 619.787 605.351 625.175 596.748C625.175 596.748 638.08 598.833 638.775 590.491" stroke="#F8ACC1" stroke-width="2.1725" stroke-miterlimit="10" stroke-linecap="round"/>
<path d="M617.789 598.355C618.173 598.355 618.484 598.044 618.484 597.66C618.484 597.276 618.173 596.965 617.789 596.965C617.405 596.965 617.094 597.276 617.094 597.66C617.094 598.044 617.405 598.355 617.789 598.355Z" fill="#F8ACC1"/>
<path d="M613.705 597.573C614.089 597.573 614.4 597.262 614.4 596.878C614.4 596.494 614.089 596.183 613.705 596.183C613.321 596.183 613.01 596.494 613.01 596.878C613.01 597.262 613.321 597.573 613.705 597.573Z" fill="#F8ACC1"/>
<path d="M620.135 596.617C620.519 596.617 620.83 596.306 620.83 595.922C620.83 595.538 620.519 595.227 620.135 595.227C619.751 595.227 619.439 595.538 619.439 595.922C619.439 596.306 619.751 596.617 620.135 596.617Z" fill="#F8ACC1"/>
<path d="M632.519 593.489C632.903 593.489 633.215 593.178 633.215 592.794C633.215 592.41 632.903 592.099 632.519 592.099C632.135 592.099 631.824 592.41 631.824 592.794C631.824 593.178 632.135 593.489 632.519 593.489Z" fill="#F8ACC1"/>
<path d="M635.385 590.534C635.769 590.534 636.08 590.223 636.08 589.839C636.08 589.455 635.769 589.144 635.385 589.144C635.001 589.144 634.689 589.455 634.689 589.839C634.689 590.223 635.001 590.534 635.385 590.534Z" fill="#F8ACC1"/>
<path d="M629.562 593.446C629.946 593.446 630.258 593.134 630.258 592.75C630.258 592.366 629.946 592.055 629.562 592.055C629.178 592.055 628.867 592.366 628.867 592.75C628.867 593.134 629.178 593.446 629.562 593.446Z" fill="#F8ACC1"/>
<path d="M608.664 592.663C608.664 592.663 608.838 595.661 610.359 597.791" stroke="#F8ACC1" stroke-width="2.1725" stroke-miterlimit="10" stroke-linecap="round"/>
<path d="M636.256 581.931C636.256 581.931 636.951 583.148 637.299 584.886" stroke="#F8ACC1" stroke-width="2.1725" stroke-miterlimit="10" stroke-linecap="round"/>
<path d="M613.791 578.673C613.791 578.673 616.833 575.718 623.698 575.414" stroke="#F8ACC1" stroke-width="2.1725" stroke-miterlimit="10" stroke-linecap="round"/>
<path d="M617.267 584.756C615.79 583.191 623.741 581.106 623.741 582.279C623.741 582.279 622.959 587.449 621.786 587.276C620.613 587.102 617.267 584.799 617.267 584.799V584.756Z" fill="#F8ACC1" stroke="#F8ACC1" stroke-width="2.1725" stroke-miterlimit="10" stroke-linecap="round"/>
<path d="M627.521 601.049L630.78 608.74" stroke="#F8ACC1" stroke-width="0.869001" stroke-miterlimit="10" stroke-linecap="round"/>
<path d="M625.174 615.953C626.043 616.344 633.994 618.429 640.555 612.173" stroke="#F8ACC1" stroke-width="2.1725" stroke-miterlimit="10" stroke-linecap="round"/>
<path d="M582.723 535.874C582.723 535.874 552.091 520.276 535.71 527.532C532.147 529.096 529.714 532.442 528.715 536.178C527.15 542.088 527.541 552.602 538.665 555.6L535.232 557.556L543.183 563.335L539.838 565.159C539.838 565.159 545.79 576.239 561.91 576.934C578.03 577.673 564.431 571.547 564.431 571.547L568.037 557.338L577.813 543.521L582.723 541.566V535.831V535.874Z" fill="#F8ACC1"/>
<path d="M610.705 518.06C610.705 518.06 605.013 488.166 617.44 477.608C619.308 476 621.915 475.652 624.305 476.261C633.604 478.737 657.588 489.209 662.932 531.703L646.552 520.71L630.997 517.973H610.662L610.705 518.06Z" fill="#F8ACC1"/>
<path d="M571.122 539.307C569.297 539.654 564.213 541.827 564.213 541.827L566.212 536.96L560.433 537.873L561.345 536.96L556.653 535.7L560.476 534.093C560.476 534.093 538.925 531.399 538.36 536.96C537.795 542.522 540.88 551.342 540.88 551.342C540.88 551.342 540.402 551.733 538.273 551.342C538.273 551.342 541.967 554.905 545.747 555.123C545.747 555.123 543.618 556.991 540.142 556.904C540.142 556.904 543.748 559.598 546.833 560.119C549.918 560.641 551.178 561.032 551.178 561.032C551.178 561.032 549.397 562.596 546.268 562.987C546.268 562.987 556.218 575.11 563.648 577.065C571.078 579.02 571.252 574.154 571.252 574.154L576.857 550.082" fill="#F8ACC1"/>
<path d="M620.567 514.019C620.567 514.019 619.351 509.674 619.612 507.719L624.869 505.372L621.089 504.851L622.783 502.548L618.047 501.896L622.305 497.595L617.656 496.943C617.656 496.943 618.699 485.646 621.306 482.778C621.306 482.778 640.772 483.691 652.807 525.837L650.939 530.095L647.029 524.099L632.473 519.711L620.263 518.19L620.654 514.062L620.567 514.019Z" fill="#F8ACC1"/>
<path d="M546.745 566.941C545.355 569.157 543.704 570.678 544.921 572.85C546.007 574.675 547.832 575.066 550.352 574.154C549.917 578.803 542.835 579.02 541.053 574.805C538.968 570.678 542.487 566.55 546.745 566.941Z" fill="#F8ACC1"/>
<path d="M673.707 540.35C660.845 525.055 643.856 517.104 633.602 517.712C623.348 518.32 581.288 535.961 581.288 535.961L571.556 547.302L567.428 553.341C562.692 560.293 559.824 568.331 558.998 576.674L558.825 578.499C557.565 582.018 559.433 593.315 560.259 596.965C565.82 621.123 571.99 634.376 585.633 638.416C602.883 643.5 650.113 632.942 671.578 621.297C680.355 616.561 686.568 609.305 689.609 598.573C694.041 582.887 686.568 555.644 673.663 540.35H673.707ZM648.506 613.693L615.701 621.601C598.017 625.903 579.941 616.17 573.728 599.051C566.733 579.628 577.552 558.338 597.365 552.602L629.735 543.217C648.853 537.656 668.797 548.779 674.141 567.94L674.532 569.418C679.92 588.883 668.145 608.957 648.506 613.693Z" fill="#F8ACC1"/>
<path d="M648.506 613.693L615.701 621.601C598.017 625.903 579.941 616.17 573.728 599.051C566.733 579.628 577.552 558.338 597.365 552.602L629.735 543.217C648.853 537.656 668.797 548.779 674.141 567.94L674.532 569.418C679.92 588.883 668.145 608.957 648.506 613.693Z" stroke="#F8ACC1" stroke-width="4.34501" stroke-miterlimit="10"/>
<path opacity="0.3" d="M648.506 613.693L615.701 621.601C598.017 625.903 579.941 616.17 573.728 599.051C566.733 579.628 577.552 558.338 597.365 552.602L629.735 543.217C648.853 537.656 668.797 548.779 674.141 567.94L674.532 569.418C679.92 588.883 668.145 608.957 648.506 613.693Z" fill="#F8ACC1"/>
<path d="M562.606 552.255C561.824 556.774 565.865 570.417 579.508 567.68C593.152 564.942 594.89 550.343 598.105 546.085C603.232 539.307 608.446 536.265 619.613 539.741C630.78 543.217 636.341 547.388 643.38 544.347C652.809 540.219 652.722 532.442 652.418 529.878C652.114 527.315 651.896 514.844 630.693 517.408C609.489 519.971 595.846 523.013 582.854 530.964C569.863 538.916 563.388 547.519 562.606 552.211V552.255Z" fill="#F8ACC1" stroke="#F8ACC1" stroke-width="4.34501" stroke-miterlimit="10"/>
<path d="M580.16 536.396C580.16 536.396 565.343 544.217 566.69 555.296C567.689 563.335 577.248 564.595 582.028 562.77C589.414 559.989 590.544 551.125 595.541 543.348C601.58 533.962 589.241 531.051 580.16 536.352V536.396Z" fill="#F8ACC1"/>
<path d="M625.304 521.058C625.304 521.058 640.077 516.365 646.856 524.447C651.765 530.313 646.464 537.395 642.206 539.394C635.602 542.479 628.824 537.438 620.308 535.7C610.01 533.571 615.876 523.578 625.304 521.058Z" fill="#F8ACC1"/>
</g>
<defs>
<clipPath id="clip0_1203_31">
<rect width="268" height="376.451" fill="white" transform="translate(424 476)"/>
</clipPath>
<clipPath id="clip1_1203_31">
<rect width="268" height="376.451" fill="white" transform="translate(424 476)"/>
</clipPath>
</defs>
</svg>
