<svg width="1920" height="793" viewBox="0 0 1920 793" fill="none" xmlns="http://www.w3.org/2000/svg">
<rect opacity="0.66" x="1576" y="608" width="364" height="58" rx="29" fill="#C6D0F9"/>
<rect opacity="0.66" x="361" y="666" width="234" height="44" rx="22" fill="#C6D0F9"/>
<path opacity="0.66" d="M1077.72 446.719C1089.18 446.719 1098.48 437.424 1098.48 425.957C1098.48 414.491 1089.18 405.196 1077.72 405.196H1064.22H968.731H901.598C884.699 405.196 871 391.496 871 374.598C871 357.699 884.699 344 901.598 344H923.797H1017.03H1117.01H1193.4H1243.68C1260.58 344 1274.28 357.699 1274.28 374.598C1274.28 391.496 1260.58 405.196 1243.68 405.196H1230.47H1206.86C1195.39 405.196 1186.1 414.491 1186.1 425.957C1186.1 437.424 1195.39 446.719 1206.86 446.719H1444.24C1485 446.719 1518.05 479.764 1518.05 520.526C1518.05 559.69 1486.6 591.599 1447.44 592.176L1251.81 595.059H1092.86H1006.95C965.991 595.059 932.784 561.852 932.784 520.889C932.784 479.926 965.991 446.719 1006.95 446.719H1077.72Z" fill="#C6D0F9"/>
<path opacity="0.3" d="M15.8962 12.408C16.8553 12.408 17.6328 13.1855 17.6328 14.1446C17.6328 15.1037 16.8553 15.8813 15.8962 15.8813H14.8264H7.00521H1.55938C0.145873 15.8813 -1 17.0271 -1 18.4406C-1 19.8541 0.145871 21 1.55937 21H3.32465H10.9618H19.151H25.408H29.4736C30.8871 21 32.033 19.8541 32.033 18.4406C32.033 17.0271 30.8871 15.8813 29.4736 15.8813H28.4444H26.5465C25.5874 15.8813 24.8099 15.1037 24.8099 14.1446C24.8099 13.1855 25.5874 12.408 26.5465 12.408H45.8264C49.236 12.408 52 9.64396 52 6.23438C52 2.95817 49.3703 0.288557 46.0944 0.239267L30.1927 0H17.1727H10.2648C6.83838 0 4.06076 2.77762 4.06076 6.20399C4.06076 9.63035 6.83838 12.408 10.2647 12.408H15.8962Z" fill="#727FB5"/>
<rect opacity="0.66" x="-96" y="698.941" width="408.541" height="93.5765" rx="46.7882" fill="#C6D0F9"/>
<rect opacity="0.77" x="1431" y="95" width="473" height="129" rx="64.5" fill="#B9B4FF"/>
<rect opacity="0.66" x="1224" y="699" width="273" height="63" rx="31.5" fill="#DCCBFF"/>
<rect opacity="0.66" x="26" y="237" width="237" height="51" rx="25.5" fill="#DCCBFF"/>
<rect opacity="0.5" x="-194" y="186" width="237" height="38" rx="19" fill="#B49EDF"/>
<rect opacity="0.48" x="1148" y="36" width="349.2" height="104.988" rx="52.4941" fill="#D3DCFF"/>
</svg>
