<svg width="1743" height="153" viewBox="0 0 1743 153" fill="none" xmlns="http://www.w3.org/2000/svg">
<path opacity="0.4" d="M0 130C0 117.297 10.2975 107 23 107H214C226.703 107 237 117.297 237 130C237 142.703 226.703 153 214 153H23C10.2975 153 0 142.703 0 130Z" fill="#8772B1"/>
<path opacity="0.2" d="M290 82C290 72.0589 298.059 64 308 64H399C408.941 64 417 72.0589 417 82C417 91.9411 408.941 100 399 100H308C298.059 100 290 91.9411 290 82Z" fill="#A791F2"/>
<rect opacity="0.66" x="914" width="420" height="64" rx="32" fill="#6A588E"/>
<rect opacity="0.48" x="1527" y="75" width="216" height="41" rx="20.5" fill="#4C4A9C"/>
</svg>
