<svg width="803" height="983" viewBox="0 0 803 983" fill="none" xmlns="http://www.w3.org/2000/svg">
<path d="M895.382 141L170 981.698H321.309L956.206 241.157H996.755V141H895.382Z" fill="#5D3F7D"/>
<path d="M881.839 141.496L156.457 982.194H307.766L942.663 241.653H983.212V141.496H881.839Z" fill="#756FCD"/>
<g filter="url(#filter0_b_1059_99)">
<mask id="path-3-inside-1_1059_99" fill="white">
<path fill-rule="evenodd" clip-rule="evenodd" d="M156.648 982.107H72.2247C70.3296 982.299 68.4118 982.396 66.4747 982.396C29.7617 982.396 0 947.278 0 903.957C0 860.636 29.7617 825.518 66.4747 825.518C68.1327 825.518 69.7766 825.589 71.4041 825.73H110.085L842.786 0L843.172 0.476361V0.354462H980.252H983.633V0.454135C1018.77 2.53122 1046.73 36.8108 1046.73 78.7939C1046.73 120.777 1018.77 155.057 983.633 157.134V157.233H980.252H888.973L162.224 976.255V982.107H157.031L156.831 982.333L156.648 982.107Z"/>
</mask>
<path fill-rule="evenodd" clip-rule="evenodd" d="M156.648 982.107H72.2247C70.3296 982.299 68.4118 982.396 66.4747 982.396C29.7617 982.396 0 947.278 0 903.957C0 860.636 29.7617 825.518 66.4747 825.518C68.1327 825.518 69.7766 825.589 71.4041 825.73H110.085L842.786 0L843.172 0.476361V0.354462H980.252H983.633V0.454135C1018.77 2.53122 1046.73 36.8108 1046.73 78.7939C1046.73 120.777 1018.77 155.057 983.633 157.134V157.233H980.252H888.973L162.224 976.255V982.107H157.031L156.831 982.333L156.648 982.107Z" fill="#D878C3" fill-opacity="0.4"/>
<path d="M72.2247 982.107V967.973H71.5121L70.8031 968.045L72.2247 982.107ZM156.648 982.107L167.634 973.215L163.392 967.973H156.648V982.107ZM71.4041 825.73L70.1864 839.811L70.7941 839.864H71.4041V825.73ZM110.085 825.73V839.864H116.439L120.657 835.111L110.085 825.73ZM842.786 0L853.772 -8.89198L843.282 -21.8532L832.214 -9.38077L842.786 0ZM843.172 0.476361L832.186 9.36834L857.306 40.4041V0.476361H843.172ZM843.172 0.354462V-13.7793H829.038V0.354462H843.172ZM983.633 0.354462H997.766V-13.7793H983.633V0.354462ZM983.633 0.454135H969.499V13.7771L982.799 14.5632L983.633 0.454135ZM983.633 157.134L982.799 143.025L969.499 143.811V157.134H983.633ZM983.633 157.233V171.367H997.766V157.233H983.633ZM888.973 157.233V143.1H882.619L878.401 147.853L888.973 157.233ZM162.224 976.255L151.653 966.874L148.091 970.888V976.255H162.224ZM162.224 982.107V996.241H176.358V982.107H162.224ZM157.031 982.107V967.973H150.677L146.459 972.726L157.031 982.107ZM156.831 982.333L145.845 991.225L156.335 1004.19L167.403 991.714L156.831 982.333ZM72.2247 996.241H156.648V967.973H72.2247V996.241ZM66.4747 996.53C68.8879 996.53 71.2802 996.408 73.6464 996.169L70.8031 968.045C69.3791 968.189 67.9358 968.263 66.4747 968.263V996.53ZM-14.1337 903.957C-14.1337 952.8 19.8533 996.53 66.4747 996.53V968.263C39.6701 968.263 14.1337 941.755 14.1337 903.957H-14.1337ZM66.4747 811.384C19.8533 811.384 -14.1337 855.114 -14.1337 903.957H14.1337C14.1337 866.159 39.6701 839.651 66.4747 839.651V811.384ZM72.6218 811.649C70.5904 811.473 68.5402 811.384 66.4747 811.384V839.651C67.7252 839.651 68.9628 839.705 70.1864 839.811L72.6218 811.649ZM110.085 811.596H71.4041V839.864H110.085V811.596ZM120.657 835.111L853.358 9.38077L832.214 -9.38077L99.5131 816.349L120.657 835.111ZM831.8 8.89198L832.186 9.36834L854.158 -8.41562L853.772 -8.89198L831.8 8.89198ZM829.038 0.354462V0.476361H857.306V0.354462H829.038ZM980.252 -13.7793H843.172V14.4882H980.252V-13.7793ZM983.633 -13.7793H980.252V14.4882H983.633V-13.7793ZM997.766 0.454135V0.354462H969.499V0.454135H997.766ZM1060.86 78.7939C1060.86 31.3748 1028.96 -11.0251 984.466 -13.655L982.799 14.5632C1008.59 16.0875 1032.59 42.2467 1032.59 78.7939H1060.86ZM984.466 171.243C1028.96 168.613 1060.86 126.213 1060.86 78.7939H1032.59C1032.59 115.341 1008.59 141.5 982.799 143.025L984.466 171.243ZM997.766 157.233V157.134H969.499V157.233H997.766ZM980.252 171.367H983.633V143.1H980.252V171.367ZM888.973 171.367H980.252V143.1H888.973V171.367ZM878.401 147.853L151.653 966.874L172.796 985.635L899.545 166.614L878.401 147.853ZM176.358 982.107V976.255H148.091V982.107H176.358ZM157.031 996.241H162.224V967.973H157.031V996.241ZM146.459 972.726L146.259 972.952L167.403 991.714L167.603 991.488L146.459 972.726ZM167.817 973.441L167.634 973.215L145.662 990.999L145.845 991.225L167.817 973.441Z" fill="#A19ED6" mask="url(#path-3-inside-1_1059_99)"/>
</g>
<defs>
<filter id="filter0_b_1059_99" x="-7" y="-7" width="1060.73" height="996.396" filterUnits="userSpaceOnUse" color-interpolation-filters="sRGB">
<feFlood flood-opacity="0" result="BackgroundImageFix"/>
<feGaussianBlur in="BackgroundImageFix" stdDeviation="3.5"/>
<feComposite in2="SourceAlpha" operator="in" result="effect1_backgroundBlur_1059_99"/>
<feBlend mode="normal" in="SourceGraphic" in2="effect1_backgroundBlur_1059_99" result="shape"/>
</filter>
</defs>
</svg>
