<svg width="289" height="226" viewBox="0 0 289 226" fill="none" xmlns="http://www.w3.org/2000/svg">
<path d="M13.6426 26.7725H288.143V225.772H13.6426V26.7725Z" fill="black"/>
<path d="M31.6426 8H124.98L137.643 24.5369H31.6426V8Z" fill="black"/>
<path d="M18.0001 31.5442H284V221.544H18.0001V31.5442Z" fill="#8B8699"/>
<path d="M36.1523 11.9983H122.819L134.577 27.9198H36.1523V11.9983Z" fill="#8B8699"/>
<path d="M0.642578 19.7725H277.643V214.772H0.642578V19.7725Z" fill="black"/>
<path d="M0.642578 0H93.98L106.643 16.5369H0.642578V0Z" fill="black"/>
<path d="M0.642578 4.40614H96.8858L109.943 20.7727H0.642578V4.40614Z" fill="black"/>
<path d="M5.00009 23.9984H273V210.998H5.00009V23.9984Z" fill="#E8E0FF"/>
<path d="M5.00009 3.99826H91.6667L103.424 19.9198H5.00009V3.99826Z" fill="#BDA9F7"/>
<path d="M5.00009 8.24037H94.6553L106.818 23.9979L5.00009 23.9984V8.24037Z" fill="#BDA9F7"/>
<path d="M4.99978 22.0002H105.29L107 24.0002H4.99978V22.0002Z" fill="#6B5F8A"/>
</svg>
